<svg width="12" height="12" viewBox="0 0 12 12" fill="none" xmlns="http://www.w3.org/2000/svg">
<path d="M0.924729 9.92278C0.534205 10.3133 0.534205 10.9465 0.924729 11.337C1.31525 11.7275 1.94842 11.7275 2.33894 11.337L0.924729 9.92278ZM11.3571 1.90464C11.3571 1.35236 10.9094 0.904643 10.3571 0.904643L1.35708 0.904643C0.804791 0.904643 0.357076 1.35236 0.357076 1.90464C0.357076 2.45693 0.804791 2.90464 1.35708 2.90464L9.35708 2.90464L9.35708 10.9046C9.35708 11.4569 9.80479 11.9046 10.3571 11.9046C10.9094 11.9046 11.3571 11.4569 11.3571 10.9046L11.3571 1.90464ZM2.33894 11.337L11.0642 2.61175L9.64997 1.19754L0.924729 9.92278L2.33894 11.337Z" fill="black"/>
</svg>
