<svg width="506" height="758" viewBox="0 0 506 758" fill="none" xmlns="http://www.w3.org/2000/svg">
<path d="M299.711 318.614C336.576 382.466 314.311 464.338 249.98 501.479C185.65 538.62 103.615 516.966 66.75 453.114C29.885 389.262 52.1501 307.391 116.48 270.25C180.811 233.109 262.846 254.762 299.711 318.614Z" fill="#FFA51F"/>
<path d="M479.844 214.614C516.709 278.466 494.444 360.338 430.114 397.479C365.783 434.62 283.748 412.966 246.883 349.114C210.018 285.262 232.283 203.391 296.614 166.25C360.944 129.109 442.979 150.762 479.844 214.614Z" fill="#FFA51F"/>
<path d="M588.844 403.408C625.709 467.26 603.444 549.131 539.114 586.272C474.783 623.413 392.748 601.76 355.883 537.908C319.018 474.056 341.283 392.185 405.614 355.044C469.944 317.902 551.979 339.556 588.844 403.408Z" fill="#FFA51F"/>
<path d="M408.711 507.408C445.576 571.26 423.311 653.131 358.98 690.272C294.65 727.413 212.615 705.76 175.75 641.908C138.885 578.056 161.15 496.185 225.48 459.044C289.811 421.902 371.846 443.556 408.711 507.408Z" fill="#FFA51F"/>
<path d="M246.215 393.956L360.53 327.956L415.03 422.353L300.715 488.353L246.215 393.956Z" fill="#FFA51F"/>
<mask id="mask0_235_2" style="mask-type:luminance" maskUnits="userSpaceOnUse" x="144" y="0" width="799" height="600">
<rect x="144" width="799" height="599.25" fill="white"/>
</mask>
<g mask="url(#mask0_235_2)">
<path d="M379.03 210.16H379.03C364.588 210.16 352.881 221.904 352.881 236.39V255.825H405.179V236.39C405.18 221.904 393.472 210.16 379.03 210.16Z" fill="white" stroke="#1B1B1B" stroke-width="0.7" stroke-linecap="round" stroke-linejoin="round"/>
<path d="M644.178 210.16H450.727V210.16H379.036C393.478 210.16 405.185 221.904 405.185 236.39V255.825V548.719C405.216 563.162 416.892 574.875 431.334 574.95H670.327V236.39C670.327 221.904 658.619 210.16 644.178 210.16Z" fill="white"/>
<path fill-rule="evenodd" clip-rule="evenodd" d="M644.178 210.16H450.727V210.16H379.036C393.478 210.16 405.185 221.904 405.185 236.39V255.825V255.825V548.719C405.216 563.162 416.892 574.874 431.334 574.95H670.327V236.39C670.327 221.904 658.619 210.16 644.178 210.16Z" stroke="#1B1B1B" stroke-width="0.7" stroke-linecap="round" stroke-linejoin="round"/>
<path d="M426.71 574.948H431.321C429.774 574.941 428.232 574.796 426.71 574.516V574.948Z" fill="#1B1B1B" stroke="#1B1B1B" stroke-width="0.7" stroke-linecap="round" stroke-linejoin="round"/>
<g opacity="0.73">
<path fill-rule="evenodd" clip-rule="evenodd" d="M431.36 329.73C431.36 318.688 440.284 309.736 451.292 309.736C462.3 309.736 471.223 318.688 471.223 329.73C471.223 340.772 462.3 349.724 451.292 349.724C440.284 349.724 431.36 340.772 431.36 329.73ZM442.529 333.37C444.001 336.902 447.458 339.198 451.284 339.186C453.788 339.182 456.187 338.184 457.954 336.411C459.722 334.638 460.713 332.235 460.709 329.732C460.709 325.906 458.402 322.456 454.866 320.995C451.329 319.533 447.261 320.348 444.559 323.058C441.858 325.768 441.056 329.839 442.529 333.37Z" fill="white"/>
<path d="M451.284 339.186L451.284 338.836L451.283 338.836L451.284 339.186ZM442.529 333.37L442.206 333.505L442.529 333.37ZM460.709 329.732L460.359 329.732V329.733L460.709 329.732ZM454.866 320.995L454.732 321.318L454.866 320.995ZM444.559 323.058L444.311 322.81L444.559 323.058ZM451.292 309.386C440.09 309.386 431.01 318.496 431.01 329.73H431.71C431.71 318.88 440.478 310.086 451.292 310.086V309.386ZM471.573 329.73C471.573 318.495 462.494 309.386 451.292 309.386V310.086C462.105 310.086 470.873 318.88 470.873 329.73H471.573ZM451.292 350.074C462.494 350.074 471.573 340.965 471.573 329.73H470.873C470.873 340.58 462.105 349.374 451.292 349.374V350.074ZM431.01 329.73C431.01 340.964 440.09 350.074 451.292 350.074V349.374C440.478 349.374 431.71 340.58 431.71 329.73H431.01ZM451.283 338.836C447.598 338.848 444.27 336.637 442.852 333.236L442.206 333.505C443.733 337.168 447.317 339.548 451.285 339.536L451.283 338.836ZM457.706 336.164C456.005 337.871 453.694 338.832 451.284 338.836L451.285 339.536C453.881 339.532 456.369 338.497 458.202 336.658L457.706 336.164ZM460.359 329.733C460.362 332.143 459.408 334.457 457.706 336.164L458.202 336.658C460.035 334.819 461.063 332.328 461.059 329.731L460.359 329.733ZM454.732 321.318C458.137 322.726 460.359 326.047 460.359 329.732L461.059 329.732C461.059 325.764 458.667 322.187 454.999 320.671L454.732 321.318ZM444.807 323.305C447.409 320.695 451.327 319.911 454.732 321.318L454.999 320.671C451.332 319.156 447.113 320 444.311 322.81L444.807 323.305ZM442.852 333.236C441.434 329.835 442.206 325.914 444.807 323.305L444.311 322.81C441.51 325.621 440.679 329.843 442.206 333.505L442.852 333.236Z" fill="#1B1B1B"/>
<path d="M486.127 315.808H640.701C643.73 315.808 646.186 318.263 646.186 321.292V321.478C646.186 324.507 643.73 326.963 640.701 326.963H486.127C483.098 326.963 480.643 324.507 480.643 321.478V321.292C480.643 318.263 483.098 315.808 486.127 315.808V315.808Z" fill="white" stroke="#1B1B1B" stroke-width="0.7" stroke-linecap="round" stroke-linejoin="round"/>
<rect x="480.643" y="332.669" width="60.5172" height="10.9866" rx="2.74579" fill="white" stroke="#1B1B1B" stroke-width="0.7" stroke-linecap="round" stroke-linejoin="round"/>
</g>
<g opacity="0.73">
<path fill-rule="evenodd" clip-rule="evenodd" d="M431.36 475.76C431.36 464.718 440.284 455.766 451.292 455.766C462.3 455.766 471.223 464.717 471.223 475.76C471.223 486.802 462.3 495.754 451.292 495.754C440.284 495.754 431.36 486.802 431.36 475.76ZM442.529 479.4C444.001 482.932 447.458 485.228 451.284 485.216V485.216C453.788 485.212 456.187 484.214 457.954 482.441C459.722 480.668 460.713 478.265 460.709 475.762C460.709 471.935 458.402 468.486 454.866 467.025C451.329 465.563 447.261 466.377 444.559 469.087C441.858 471.797 441.056 475.868 442.529 479.4Z" fill="white"/>
<path d="M451.284 485.216H451.634C451.634 485.123 451.597 485.034 451.531 484.968C451.465 484.902 451.376 484.866 451.283 484.866L451.284 485.216ZM451.284 485.216H450.934C450.934 485.309 450.971 485.398 451.037 485.464C451.103 485.529 451.192 485.566 451.285 485.566L451.284 485.216ZM457.954 482.441L458.202 482.688L457.954 482.441ZM460.709 475.762L460.359 475.762V475.762L460.709 475.762ZM454.866 467.025L454.999 466.701L454.866 467.025ZM451.292 455.416C440.09 455.416 431.01 464.525 431.01 475.76H431.71C431.71 464.91 440.478 456.116 451.292 456.116V455.416ZM471.573 475.76C471.573 464.525 462.494 455.416 451.292 455.416V456.116C462.105 456.116 470.873 464.91 470.873 475.76H471.573ZM451.292 496.104C462.494 496.104 471.573 486.994 471.573 475.76H470.873C470.873 486.61 462.105 495.404 451.292 495.404V496.104ZM431.01 475.76C431.01 486.994 440.09 496.104 451.292 496.104V495.404C440.478 495.404 431.71 486.61 431.71 475.76H431.01ZM451.283 484.866C447.598 484.877 444.27 482.667 442.852 479.266L442.206 479.535C443.733 483.197 447.317 485.578 451.285 485.566L451.283 484.866ZM451.634 485.216V485.216H450.934V485.216H451.634ZM457.707 482.194C456.005 483.901 453.694 484.862 451.284 484.866L451.285 485.566C453.881 485.562 456.369 484.527 458.202 482.688L457.707 482.194ZM460.359 475.762C460.362 478.173 459.408 480.486 457.707 482.194L458.202 482.688C460.035 480.849 461.063 478.358 461.059 475.761L460.359 475.762ZM454.732 467.348C458.137 468.756 460.359 472.077 460.359 475.762L461.059 475.762C461.059 471.794 458.667 468.217 454.999 466.701L454.732 467.348ZM444.807 469.334C447.409 466.725 451.327 465.941 454.732 467.348L454.999 466.701C451.332 465.186 447.113 466.03 444.311 468.84L444.807 469.334ZM442.852 479.266C441.434 475.865 442.206 471.944 444.807 469.334L444.311 468.84C441.51 471.651 440.679 475.872 442.206 479.535L442.852 479.266Z" fill="#1B1B1B"/>
<path d="M486.127 461.837H640.701C643.73 461.837 646.186 464.293 646.186 467.322V467.507C646.186 470.537 643.73 472.992 640.701 472.992H486.127C483.098 472.992 480.643 470.537 480.643 467.507V467.322C480.643 464.293 483.098 461.837 486.127 461.837V461.837Z" fill="white" stroke="#1B1B1B" stroke-width="0.7" stroke-linecap="round" stroke-linejoin="round"/>
<rect x="480.643" y="478.698" width="60.5172" height="10.9866" rx="2.74579" fill="white" stroke="#1B1B1B" stroke-width="0.7" stroke-linecap="round" stroke-linejoin="round"/>
</g>
<rect x="489.32" y="273.643" width="98.9214" height="6.50686" rx="1.62621" fill="white" stroke="#1B1B1B" stroke-width="0.7" stroke-linecap="round" stroke-linejoin="round"/>
<path fill-rule="evenodd" clip-rule="evenodd" d="M431.361 402.743C431.361 391.701 440.284 382.75 451.292 382.75C462.3 382.75 471.224 391.701 471.224 402.743C471.224 413.785 462.3 422.737 451.292 422.737C440.284 422.737 431.361 413.785 431.361 402.743ZM442.529 406.384C444.002 409.915 447.458 412.211 451.284 412.199C453.788 412.195 456.187 411.197 457.955 409.424C459.722 407.651 460.713 405.249 460.709 402.745C460.709 398.919 458.402 395.47 454.866 394.008C451.33 392.547 447.261 393.361 444.559 396.071C441.858 398.781 441.056 402.852 442.529 406.384Z" fill="white"/>
<path d="M451.284 412.199L451.284 411.849L451.283 411.849L451.284 412.199ZM442.529 406.384L442.206 406.518L442.529 406.384ZM460.709 402.745L460.359 402.745V402.746L460.709 402.745ZM454.866 394.008L454.732 394.332L454.866 394.008ZM444.559 396.071L444.312 395.824L444.559 396.071ZM451.292 382.4C440.09 382.4 431.011 391.509 431.011 402.743H431.711C431.711 391.893 440.478 383.1 451.292 383.1V382.4ZM471.574 402.743C471.574 391.509 462.494 382.4 451.292 382.4V383.1C462.106 383.1 470.874 391.893 470.874 402.743H471.574ZM451.292 423.087C462.494 423.087 471.574 413.978 471.574 402.743H470.874C470.874 413.593 462.106 422.387 451.292 422.387V423.087ZM431.011 402.743C431.011 413.978 440.09 423.087 451.292 423.087V422.387C440.478 422.387 431.711 413.593 431.711 402.743H431.011ZM451.283 411.849C447.599 411.861 444.27 409.65 442.852 406.249L442.206 406.518C443.733 410.181 447.317 412.562 451.285 412.549L451.283 411.849ZM457.707 409.177C456.005 410.884 453.694 411.845 451.284 411.849L451.285 412.549C453.881 412.545 456.37 411.51 458.203 409.671L457.707 409.177ZM460.359 402.746C460.363 405.156 459.409 407.47 457.707 409.177L458.203 409.671C460.036 407.832 461.063 405.341 461.059 402.745L460.359 402.746ZM454.732 394.332C458.138 395.739 460.359 399.06 460.359 402.745L461.059 402.745C461.059 398.777 458.667 395.2 455 393.685L454.732 394.332ZM444.807 396.318C447.409 393.708 451.327 392.924 454.732 394.332L455 393.685C451.332 392.169 447.113 393.013 444.312 395.824L444.807 396.318ZM442.852 406.249C441.434 402.848 442.206 398.927 444.807 396.318L444.312 395.824C441.51 398.634 440.679 402.856 442.206 406.518L442.852 406.249Z" fill="#1B1B1B"/>
<path d="M486.128 388.819H640.701C643.73 388.819 646.186 391.274 646.186 394.304V394.489C646.186 397.518 643.73 399.974 640.701 399.974H486.128C483.099 399.974 480.643 397.519 480.643 394.489V394.304C480.643 391.274 483.099 388.819 486.128 388.819L486.128 388.819Z" fill="white" stroke="#1B1B1B" stroke-width="0.7" stroke-linecap="round" stroke-linejoin="round"/>
<rect x="480.643" y="405.68" width="60.5172" height="10.9866" rx="2.74579" fill="white" stroke="#1B1B1B" stroke-width="0.7" stroke-linecap="round" stroke-linejoin="round"/>
<path d="M468.31 235.292C463.143 242.46 457.553 249.314 451.57 255.815" stroke="#1B1B1B" stroke-width="0.7" stroke-linecap="round" stroke-linejoin="round"/>
<path d="M612.658 70.9976C592.151 80.9036 579.377 69.7838 552.799 131.994C545.552 148.957 502.366 169.714 549.242 178.507C579.266 184.139 619.395 151.276 619.395 151.276C619.395 151.276 624.725 140.657 619.395 134C614.065 127.343 631.397 97.8345 631.397 87.0027C631.397 82.7233 615.619 78.7639 612.658 70.9976Z" fill="white"/>
<mask id="mask1_235_2" style="mask-type:luminance" maskUnits="userSpaceOnUse" x="527" y="70" width="105" height="110">
<path fill-rule="evenodd" clip-rule="evenodd" d="M612.655 70.9985C592.148 80.9046 579.373 69.7848 552.796 131.995C545.549 148.958 502.362 169.715 549.239 178.508C579.262 184.139 619.391 151.277 619.391 151.277C619.391 151.277 624.722 140.658 619.391 134.001C614.061 127.344 631.394 97.8354 631.394 87.0037C631.394 82.7243 615.616 78.7649 612.655 70.9985Z" fill="white"/>
</mask>
<g mask="url(#mask1_235_2)">
</g>
<rect x="413.539" y="412.71" width="31.6881" height="69.6356" fill="white"/>
<mask id="mask2_235_2" style="mask-type:luminance" maskUnits="userSpaceOnUse" x="413" y="412" width="33" height="71">
<rect x="413.538" y="412.71" width="31.6881" height="69.6356" fill="white"/>
</mask>
<g mask="url(#mask2_235_2)">
<path d="M451.709 423.302C443.39 447.61 416.988 428.277 416.264 445.433C415.541 462.59 441.031 465.598 455.231 462.59C469.431 459.583 445.227 490.421 445.227 490.421L390.223 474.095L403.244 421.488L426.753 422.577" fill="white"/>
</g>
<rect x="413.539" y="412.71" width="31.6881" height="69.6356" stroke="#1B1B1B" stroke-width="0.7" stroke-linecap="round" stroke-linejoin="round"/>
<path d="M429.384 574.949C413.778 574.949 401.231 562.066 401.593 546.417L403.536 462.594H455.231L457.174 546.417C457.537 562.066 444.989 574.949 429.384 574.949Z" fill="#1B1B1B"/>
<mask id="mask3_235_2" style="mask-type:luminance" maskUnits="userSpaceOnUse" x="401" y="462" width="57" height="113">
<path fill-rule="evenodd" clip-rule="evenodd" d="M429.382 574.948C413.776 574.948 401.228 562.065 401.591 546.416L403.534 462.593H455.229L457.172 546.416C457.535 562.065 444.987 574.948 429.382 574.948Z" fill="white"/>
</mask>
<g mask="url(#mask3_235_2)">
<path d="M452.799 450.881C456.73 579.966 419.887 556.756 395.292 560.053C370.698 563.351 429.389 603.26 429.389 603.26L484.266 609.79L492.517 507.479L463.288 467.351" fill="#1B1B1B"/>
</g>
<path fill-rule="evenodd" clip-rule="evenodd" d="M429.384 574.949V574.949C413.778 574.949 401.231 562.066 401.593 546.417L403.536 462.594H455.231L457.174 546.417C457.537 562.066 444.989 574.949 429.384 574.949Z" stroke="#1B1B1B" stroke-width="0.7" stroke-linecap="round" stroke-linejoin="round"/>
<path fill-rule="evenodd" clip-rule="evenodd" d="M341.772 348.757C341.772 300.568 380.716 261.502 428.756 261.502C476.796 261.502 515.739 300.568 515.739 348.757C515.739 396.946 476.796 436.012 428.756 436.012C380.716 436.012 341.772 396.946 341.772 348.757ZM364.993 348.759C364.993 384.083 393.539 412.718 428.753 412.718C463.966 412.718 492.512 384.083 492.512 348.759C492.512 313.436 463.966 284.801 428.753 284.801C393.539 284.801 364.993 313.436 364.993 348.759Z" fill="white"/>
<path d="M428.753 412.718V413.068C428.946 413.068 429.103 412.911 429.103 412.718H428.753ZM428.753 412.718V412.368C428.559 412.368 428.403 412.524 428.403 412.718H428.753ZM428.756 261.152C380.522 261.152 341.422 300.376 341.422 348.757H342.122C342.122 300.76 380.91 261.852 428.756 261.852V261.152ZM341.422 348.757C341.422 397.139 380.521 436.362 428.756 436.362V435.662C380.91 435.662 342.122 396.754 342.122 348.757H341.422ZM428.756 436.362C476.99 436.362 516.089 397.139 516.089 348.757H515.389C515.389 396.754 476.601 435.662 428.756 435.662V436.362ZM516.089 348.757C516.089 300.375 476.99 261.152 428.756 261.152V261.852C476.601 261.852 515.389 300.76 515.389 348.757H516.089ZM428.753 412.368C393.734 412.368 365.343 383.89 365.343 348.759H364.643C364.643 384.275 393.345 413.068 428.753 413.068V412.368ZM365.343 348.759C365.343 313.629 393.734 285.151 428.753 285.151V284.451C393.345 284.451 364.643 313.244 364.643 348.759H365.343ZM428.753 285.151C463.772 285.151 492.162 313.629 492.162 348.759H492.862C492.862 313.244 464.16 284.451 428.753 284.451V285.151ZM492.162 348.759C492.162 383.89 463.772 412.368 428.753 412.368V413.068C464.16 413.068 492.862 384.275 492.862 348.759H492.162ZM428.403 412.718V412.718H429.103V412.718H428.403Z" fill="#1B1B1B"/>
<path d="M400.931 278.137L394.407 281.374" stroke="#1B1B1B" stroke-width="0.7" stroke-linecap="round" stroke-linejoin="round"/>
<path d="M437.617 519.28C434.09 524.523 429.516 528.98 424.182 532.369" stroke="#1B1B1B" stroke-width="0.7" stroke-linecap="round" stroke-linejoin="round"/>
<path d="M366.841 127.953L343.002 123.195C340.239 122.643 337.347 122.873 334.782 124.04C328.427 126.931 318.873 134.724 328.064 154.183C341.038 181.655 357.937 178.902 357.937 178.902L376.284 150.253C381.851 141.559 376.944 129.97 366.841 127.953Z" fill="#1B1B1B" stroke="#1B1B1B" stroke-width="0.7" stroke-linecap="round" stroke-linejoin="round"/>
<path d="M354.785 158.814L360.147 183.068L335.823 199.724L335.481 154.253L354.785 158.814Z" fill="white"/>
<mask id="mask4_235_2" style="mask-type:luminance" maskUnits="userSpaceOnUse" x="335" y="154" width="26" height="46">
<path fill-rule="evenodd" clip-rule="evenodd" d="M354.787 158.813L360.15 183.066L335.826 199.723L335.483 154.251L354.787 158.813Z" fill="white"/>
</mask>
<g mask="url(#mask4_235_2)">
<path d="M345.303 171.161C337.881 184.238 328.913 176.511 330.712 187.814C331.726 194.186 328.586 171.34 328.586 171.34L333.093 155.086L343.461 162.432" fill="white"/>
</g>
<path fill-rule="evenodd" clip-rule="evenodd" d="M354.785 158.814L360.147 183.068L335.823 199.724L335.481 154.253L354.785 158.814V158.814Z" stroke="#1B1B1B" stroke-width="0.7" stroke-linecap="round" stroke-linejoin="round"/>
<path d="M354.486 159.546C347.123 155.588 333.784 145.911 340.111 130.064C330.828 133.107 320.069 156.616 323.634 166.893C325.103 171.129 337.542 171.808 345.313 171.166" fill="white"/>
<path d="M354.486 159.546C347.123 155.588 333.784 145.911 340.111 130.064C330.828 133.107 320.069 156.616 323.634 166.893C325.103 171.129 337.542 171.808 345.313 171.166" stroke="#1B1B1B" stroke-width="0.7" stroke-linecap="round" stroke-linejoin="round"/>
<path d="M348.589 157.033C363.049 147.339 366.613 166.165 351.121 165.489L348.589 157.033Z" fill="white"/>
<path d="M348.589 157.033C363.049 147.339 366.613 166.165 351.121 165.489" stroke="#1B1B1B" stroke-width="0.7" stroke-linecap="round" stroke-linejoin="round"/>
<path d="M333.889 201.673V192.311L358.344 170.951L363.183 185.577L342.782 200.795" fill="white"/>
<path d="M333.889 201.673V192.311L358.344 170.951L363.183 185.577L342.782 200.795" stroke="#1B1B1B" stroke-width="0.7" stroke-linecap="round" stroke-linejoin="round"/>
<path d="M408.762 456.671L450.493 531.876L432.598 545.088L387.166 472.616L408.762 456.671Z" fill="white"/>
<mask id="mask5_235_2" style="mask-type:luminance" maskUnits="userSpaceOnUse" x="387" y="456" width="64" height="90">
<path fill-rule="evenodd" clip-rule="evenodd" d="M408.762 456.67L450.494 531.874L432.599 545.087L387.167 472.615L408.762 456.67Z" fill="white"/>
</mask>
<g mask="url(#mask5_235_2)">
<path d="M429.584 485.33C431.421 506.411 411.427 514.5 411.659 519.403C411.892 524.305 399.105 506.656 399.105 506.656L420.494 489.987" fill="white"/>
</g>
<path fill-rule="evenodd" clip-rule="evenodd" d="M408.762 456.671L450.493 531.876L432.598 545.088L387.166 472.616L408.762 456.671V456.671Z" stroke="#1B1B1B" stroke-width="0.7" stroke-linecap="round" stroke-linejoin="round"/>
<path d="M406.325 574.947L427.758 574.75L455.191 537.447L445.349 521.933C445.349 521.933 427.291 531.082 421.894 531.082C418.364 531.082 438.467 546.823 418.828 558.009C409.987 563.045 406.033 567.995 404.274 571.237C403.371 572.902 404.506 574.964 406.325 574.947Z" fill="#1B1B1B"/>
<mask id="mask6_235_2" style="mask-type:luminance" maskUnits="userSpaceOnUse" x="403" y="521" width="53" height="54">
<path fill-rule="evenodd" clip-rule="evenodd" d="M406.328 574.947L427.761 574.749L455.193 537.446L445.352 521.933C445.352 521.933 427.294 531.082 421.897 531.082C418.367 531.082 438.47 546.822 418.831 558.009C409.989 563.045 406.036 567.995 404.277 571.236C403.374 572.901 404.509 574.964 406.328 574.947Z" fill="white"/>
</mask>
<g mask="url(#mask6_235_2)">
<path d="M400.669 571.007H426.04L455.187 527.628C455.187 527.628 461.437 537.599 461.611 538.123C461.786 538.648 452.195 565.76 452.195 565.76L429.571 577.129L399.092 579.824" fill="white"/>
<path d="M400.669 571.007H426.04L455.187 527.628C455.187 527.628 461.437 537.599 461.611 538.123C461.786 538.648 452.195 565.76 452.195 565.76L429.571 577.129L399.092 579.824" stroke="#1B1B1B" stroke-width="0.7" stroke-linecap="round" stroke-linejoin="round"/>
</g>
<path fill-rule="evenodd" clip-rule="evenodd" d="M406.325 574.947L427.758 574.75L455.191 537.447L445.349 521.933C445.349 521.933 427.291 531.082 421.894 531.082C418.364 531.082 438.467 546.823 418.828 558.009C409.987 563.045 406.033 567.995 404.274 571.237C403.371 572.902 404.506 574.964 406.325 574.947Z" stroke="#1B1B1B" stroke-width="0.7" stroke-linecap="round" stroke-linejoin="round"/>
<path d="M324.226 483.208L309.615 566.021H288.415L298.106 483.208H324.226Z" fill="white"/>
<mask id="mask7_235_2" style="mask-type:luminance" maskUnits="userSpaceOnUse" x="288" y="483" width="37" height="84">
<path fill-rule="evenodd" clip-rule="evenodd" d="M324.225 483.209L309.614 566.022H288.414L298.105 483.209H324.225Z" fill="white"/>
</mask>
<g mask="url(#mask7_235_2)">
<path d="M291.903 515.807C280.743 519.895 313.994 524.245 314.922 535.92C315.85 547.595 322.592 513.031 322.592 513.031H312.362" fill="white"/>
</g>
<path fill-rule="evenodd" clip-rule="evenodd" d="M324.226 483.208L309.615 566.021H288.415L298.106 483.208H324.226V483.208Z" stroke="#1B1B1B" stroke-width="0.7" stroke-linecap="round" stroke-linejoin="round"/>
<path d="M248.857 574.75H311.572L313.811 551.436L290.866 542.962C290.404 551.695 282.591 562.994 260.633 563.264C246.65 563.436 248.857 574.75 248.857 574.75Z" fill="#1B1B1B"/>
<mask id="mask8_235_2" style="mask-type:luminance" maskUnits="userSpaceOnUse" x="248" y="542" width="66" height="33">
<path fill-rule="evenodd" clip-rule="evenodd" d="M248.859 574.75H311.573L313.812 551.436L290.868 542.962C290.406 551.695 282.593 562.994 260.634 563.264C246.651 563.436 248.859 574.75 248.859 574.75Z" fill="white"/>
</mask>
<g mask="url(#mask8_235_2)">
<rect x="239.166" y="570.342" width="79.5132" height="12.2814" fill="white" stroke="#1B1B1B" stroke-width="0.7" stroke-linecap="round" stroke-linejoin="round"/>
</g>
<path fill-rule="evenodd" clip-rule="evenodd" d="M248.857 574.75H311.572L313.811 551.436L290.866 542.962C290.404 551.695 282.591 562.994 260.633 563.264C246.65 563.436 248.857 574.75 248.857 574.75Z" stroke="#1B1B1B" stroke-width="0.7" stroke-linecap="round" stroke-linejoin="round"/>
<path d="M298.359 378.653C298.359 378.653 303.966 378.281 293.986 363.566L295.224 363.806C295.224 363.806 297.359 365.838 301.515 361.477C305.672 357.115 304.322 348.866 304.322 348.866L314.076 332.591L303.383 325.343C303.383 325.343 294.762 341.184 291.295 348.988C290.541 350.683 290.104 352.501 290.005 354.354C289.816 357.919 289.535 364.067 289.808 364.807C290.195 365.857 298.359 378.653 298.359 378.653Z" fill="white"/>
<mask id="mask9_235_2" style="mask-type:luminance" maskUnits="userSpaceOnUse" x="289" y="325" width="26" height="54">
<path fill-rule="evenodd" clip-rule="evenodd" d="M298.357 378.652C298.357 378.652 303.963 378.28 293.984 363.565L295.221 363.805C295.221 363.805 297.356 365.837 301.513 361.476C305.669 357.114 304.319 348.865 304.319 348.865L314.074 332.59L303.38 325.342C303.38 325.342 294.759 341.183 291.292 348.987C290.538 350.682 290.101 352.5 290.003 354.353C289.813 357.918 289.532 364.066 289.805 364.806C290.192 365.856 298.357 378.652 298.357 378.652Z" fill="white"/>
</mask>
<g mask="url(#mask9_235_2)">
<path d="M298.244 332.365C309.63 342.299 304.235 343.258 308.885 347.689C313.535 352.12 310.745 333.463 310.745 333.463L298.771 330.781" fill="white"/>
</g>
<path fill-rule="evenodd" clip-rule="evenodd" d="M298.359 378.653C298.359 378.653 303.966 378.281 293.986 363.566L295.224 363.806C295.224 363.806 297.359 365.838 301.515 361.477C305.672 357.115 304.322 348.866 304.322 348.866L314.076 332.591L303.383 325.343C303.383 325.343 294.762 341.184 291.295 348.988C290.541 350.683 290.104 352.501 290.005 354.354C289.816 357.919 289.535 364.067 289.808 364.807C290.195 365.857 298.359 378.653 298.359 378.653Z" stroke="#1B1B1B" stroke-width="0.7" stroke-linecap="round" stroke-linejoin="round"/>
<path d="M297.341 331.469C297.341 331.469 310.33 344.905 319.818 348.264L340.67 271.006L334.352 197.48L331.702 207.267L313.958 281.643L297.341 331.469Z" fill="white"/>
<mask id="mask10_235_2" style="mask-type:luminance" maskUnits="userSpaceOnUse" x="297" y="197" width="44" height="152">
<path fill-rule="evenodd" clip-rule="evenodd" d="M297.344 331.468C297.344 331.468 310.333 344.904 319.821 348.263L340.674 271.005L334.356 197.479L331.706 207.266L313.961 281.642L297.344 331.468Z" fill="white"/>
</mask>
<g mask="url(#mask10_235_2)">
<path d="M299.791 314.067C302.058 321.414 326.993 335.757 326.993 335.757L322.111 353.073L283.924 336.456" fill="white"/>
<path d="M299.791 314.067C302.058 321.414 326.993 335.757 326.993 335.757L322.111 353.073L283.924 336.456" stroke="#1B1B1B" stroke-width="0.7" stroke-linecap="round" stroke-linejoin="round"/>
</g>
<path fill-rule="evenodd" clip-rule="evenodd" d="M297.341 331.469C297.341 331.469 310.33 344.905 319.818 348.264L340.67 271.006L334.352 197.48L331.702 207.267L313.958 281.643L297.341 331.469Z" stroke="#1B1B1B" stroke-width="0.7" stroke-linecap="round" stroke-linejoin="round"/>
<path d="M399.352 515.811C421.118 513.086 431.164 493.098 431.164 493.098L381.982 402.047L384.004 295.951L334.357 303.051L347.07 417.604C347.314 419.834 347.992 421.995 349.065 423.965L399.352 515.811Z" fill="white"/>
<path fill-rule="evenodd" clip-rule="evenodd" d="M399.352 515.811C421.118 513.086 431.164 493.098 431.164 493.098L381.982 402.047L384.004 295.951L334.357 303.051L347.07 417.604C347.314 419.834 347.992 421.995 349.065 423.965L399.352 515.811Z" stroke="#1B1B1B" stroke-width="0.7" stroke-linecap="round" stroke-linejoin="round"/>
<path d="M289.694 518.38C289.694 518.38 315.181 535.925 327.738 522.685L340.685 409.813L376.889 354.755C387.619 338.437 384.507 297.854 382.77 278.082L389.316 281.828L324.972 295.095L302.252 403.046L289.694 518.38Z" fill="white"/>
<mask id="mask11_235_2" style="mask-type:luminance" maskUnits="userSpaceOnUse" x="289" y="278" width="101" height="250">
<path fill-rule="evenodd" clip-rule="evenodd" d="M289.692 518.38C289.692 518.38 315.179 535.925 327.736 522.685L340.682 409.813L376.887 354.755C387.617 338.437 384.504 297.854 382.768 278.082L389.313 281.828L324.97 295.095L302.249 403.046L289.692 518.38Z" fill="white"/>
</mask>
<g mask="url(#mask11_235_2)">
<path d="M305.408 367.24C320.663 361.355 318.058 314.419 355.265 311.8C392.472 309.18 367.915 291.92 367.915 291.92L328.104 288.781L324.966 295.095L308.682 344.824" fill="white"/>
<path d="M365.417 336.581C386.72 351.259 389.311 339.584 389.311 339.584L360.156 388.588L352.63 373.896C352.63 373.896 365.968 347.557 365.417 336.581Z" fill="white"/>
</g>
<path fill-rule="evenodd" clip-rule="evenodd" d="M289.694 518.38C289.694 518.38 315.181 535.925 327.738 522.685L340.685 409.813L376.889 354.755C387.619 338.437 384.507 297.854 382.77 278.082L389.316 281.828L324.972 295.095L302.252 403.046L289.694 518.38Z" stroke="#1B1B1B" stroke-width="0.7" stroke-linecap="round" stroke-linejoin="round"/>
<path d="M313.961 298.335C313.961 298.335 374.023 319.141 401.649 287.23C401.649 287.23 391.948 210.341 359.578 177.497L334.356 197.48C334.356 197.48 320.751 214.275 323.103 252.59C323.958 266.515 313.961 298.335 313.961 298.335Z" fill="white"/>
<path fill-rule="evenodd" clip-rule="evenodd" d="M313.961 298.335C313.961 298.335 374.023 319.141 401.649 287.23C401.649 287.23 391.948 210.341 359.578 177.497L334.356 197.48C334.356 197.48 320.751 214.275 323.103 252.59C323.958 266.515 313.961 298.335 313.961 298.335Z" stroke="#1B1B1B" stroke-width="0.7" stroke-linecap="round" stroke-linejoin="round"/>
<path d="M264.403 232.036L263.055 231.71L262.26 232.879L284.523 248.975L289.25 248.561L274.409 238.115L264.403 232.036Z" fill="#1B1B1B" stroke="#1B1B1B" stroke-width="0.7" stroke-linecap="round" stroke-linejoin="round"/>
<path d="M267.651 231.492L263.056 231.716L290.012 249.056L292.929 247.56L267.651 231.492Z" fill="#1B1B1B" stroke="#1B1B1B" stroke-width="0.7" stroke-linecap="round" stroke-linejoin="round"/>
<path d="M312.819 260.937C312.819 260.937 304.747 257.565 304.496 256.455C304.245 255.346 304.512 252.441 298.386 249.903C292.26 247.365 280.909 242.892 280.909 242.892C280.909 242.892 276.04 246.631 284.533 248.979L286.048 252.901L289.692 259.458L290.928 263.775L294.918 265.529L308.289 271.335L312.819 260.937Z" fill="white" stroke="#1B1B1B" stroke-width="0.7" stroke-linecap="round" stroke-linejoin="round"/>
<path d="M294.907 265.528C292.531 264.541 286.837 262.45 286.708 259.593C286.708 259.593 283.5 258.697 284.105 254.659C284.105 254.659 283.842 254.404 283.727 252.653C283.71 252.392 283.697 252.097 283.688 251.766C283.688 251.766 273.249 244.298 273.832 241.248C274.698 236.713 285.267 246.97 285.267 246.97" fill="white"/>
<path d="M294.907 265.528C292.531 264.541 286.837 262.45 286.708 259.593C286.708 259.593 283.5 258.697 284.105 254.659C284.105 254.659 283.842 254.404 283.727 252.653C283.71 252.392 283.697 252.097 283.688 251.766C283.688 251.766 273.249 244.298 273.832 241.248C274.698 236.713 285.267 246.97 285.267 246.97" stroke="#1B1B1B" stroke-width="0.7" stroke-linecap="round" stroke-linejoin="round"/>
<path d="M305.62 252.876C305.62 252.876 296.318 266.686 297.434 272.657L350.803 314.563C357.018 319.447 365.443 320.442 372.624 317.142C381.535 313.034 386.465 303.35 384.543 293.727L368.839 214.788C367.961 210.336 365.261 206.453 361.393 204.081C357.524 201.709 352.839 201.064 348.473 202.301C340.08 204.705 335.071 213.296 337.113 221.785L350.929 279.454L305.62 252.876Z" fill="white"/>
<mask id="mask12_235_2" style="mask-type:luminance" maskUnits="userSpaceOnUse" x="297" y="201" width="88" height="119">
<path fill-rule="evenodd" clip-rule="evenodd" d="M305.623 252.878C305.623 252.878 296.321 266.687 297.437 272.659L350.807 314.564C357.021 319.448 365.446 320.444 372.628 317.143C381.539 313.035 386.468 303.351 384.547 293.729L368.842 214.79C367.965 210.337 365.265 206.455 361.396 204.083C357.527 201.711 352.843 201.065 348.477 202.303C340.083 204.706 335.074 213.297 337.117 221.786L350.932 279.456L305.623 252.878Z" fill="white"/>
</mask>
<g mask="url(#mask12_235_2)">
<path d="M317.511 255.649C310.536 257.514 308.211 286.434 308.211 286.434L289.245 266.61L304.896 248.979" fill="white"/>
<path d="M317.511 255.649C310.536 257.514 308.211 286.434 308.211 286.434L289.245 266.61L304.896 248.979" stroke="#1B1B1B" stroke-width="0.7" stroke-linecap="round" stroke-linejoin="round"/>
</g>
<path fill-rule="evenodd" clip-rule="evenodd" d="M305.62 252.876C305.62 252.876 296.318 266.686 297.434 272.657L350.803 314.563C357.018 319.447 365.443 320.442 372.624 317.142V317.142C381.535 313.034 386.465 303.35 384.543 293.727L368.839 214.788C367.961 210.336 365.261 206.453 361.393 204.081C357.524 201.709 352.839 201.064 348.473 202.301V202.301C340.08 204.705 335.071 213.296 337.113 221.785L350.929 279.454L305.62 252.876Z" stroke="#1B1B1B" stroke-width="0.7" stroke-linecap="round" stroke-linejoin="round"/>
<ellipse cx="329.961" cy="216.349" rx="1.62746" ry="1.63254" fill="#1B1B1B"/>
<ellipse cx="328.338" cy="242.894" rx="1.62746" ry="1.63254" fill="#1B1B1B"/>
<path d="M408.722 273.83L390.614 279.949L387.915 271.913L406.023 265.793L408.722 273.83Z" fill="white" stroke="#1B1B1B" stroke-width="0.7" stroke-linecap="round" stroke-linejoin="round"/>
<ellipse cx="402.801" cy="271.35" rx="1.05931" ry="1.06261" fill="white" stroke="#1B1B1B" stroke-width="0.7" stroke-linecap="round" stroke-linejoin="round"/>
<path d="M331.68 150.086C332.022 150.341 332.45 150.449 332.871 150.386C333.292 150.324 333.671 150.097 333.924 149.755L335.539 147.574C336.067 146.861 335.919 145.855 335.208 145.324C334.867 145.07 334.438 144.962 334.018 145.024C333.597 145.086 333.218 145.314 332.965 145.656L331.35 147.836C330.822 148.549 330.97 149.555 331.68 150.086Z" fill="#1B1B1B"/>
<path d="M337.26 140.152C341.276 142.876 340.944 145.138 338.323 143.599C335.702 142.06 334.637 138.372 337.26 140.152Z" fill="#1B1B1B"/>
<path d="M329.798 144.976C322.927 144.948 319.429 152.926 325.374 153.542L329.798 144.976Z" fill="white"/>
<path d="M329.798 144.976C322.927 144.948 319.429 152.926 325.374 153.542" stroke="#1B1B1B" stroke-width="0.7" stroke-linecap="round" stroke-linejoin="round"/>
<ellipse opacity="0.27" cx="338.634" cy="158.531" rx="5.38444" ry="5.40122" fill="white"/>
<path d="M331.628 158.503C329.654 159.321 327.391 158.995 325.727 157.655L331.628 158.503Z" fill="white"/>
<path d="M331.628 158.503C329.654 159.321 327.391 158.995 325.727 157.655" stroke="#1B1B1B" stroke-width="0.7" stroke-linecap="round" stroke-linejoin="round"/>
<path d="M354.894 157.874C355.422 157.537 356.1 157.552 356.612 157.912C357.125 158.271 357.369 158.904 357.232 159.515C357.095 160.125 356.604 160.593 355.987 160.699" stroke="#1B1B1B" stroke-width="0.7" stroke-linecap="round" stroke-linejoin="round"/>
<path d="M354.706 134.129C353.957 136.471 353.201 138.856 353.178 141.315C353.155 143.774 353.977 146.363 355.889 147.904" stroke="#1B1B1B" stroke-width="0.7" stroke-linecap="round" stroke-linejoin="round"/>
<path d="M350.79 278.503C350.93 279.801 351.581 280.99 352.6 281.805" stroke="#1B1B1B" stroke-width="0.7" stroke-linecap="round" stroke-linejoin="round"/>
<path d="M394.558 256.196L390.334 260.824" stroke="#1B1B1B" stroke-width="0.7" stroke-linecap="round" stroke-linejoin="round"/>
<path d="M325.525 365.293C326.937 370.296 330.354 374.493 334.966 376.892" stroke="#1B1B1B" stroke-width="0.7" stroke-linecap="round" stroke-linejoin="round"/>
<path d="M298.231 556.968L300.091 557.901" stroke="#1B1B1B" stroke-width="0.7" stroke-linecap="round" stroke-linejoin="round"/>
</g>
</svg>
