<svg width="302" height="94" viewBox="0 0 302 94" fill="none" xmlns="http://www.w3.org/2000/svg">
<path d="M84.4746 40.6824H67.4872V57.0162H59.8101V17.5766H86.5981V23.7797H67.4872V34.5065H84.4746V40.6824ZM114.23 27.1657C115.373 27.1657 116.426 27.2469 117.388 27.4095C118.368 27.554 119.158 27.7164 119.756 27.897L118.64 35.4004C117.642 35.1655 116.617 34.994 115.564 34.8857C114.53 34.7592 113.54 34.696 112.597 34.696C110.473 34.696 108.767 35.1024 107.479 35.9149C106.208 36.7276 105.255 37.8923 104.62 39.4093V57.0162H97.0519V27.7075H104.103L104.457 32.502C105.655 30.8406 107.088 29.5403 108.758 28.6013C110.428 27.6443 112.252 27.1657 114.23 27.1657ZM144.965 57.0162C144.784 56.655 144.63 56.2397 144.503 55.7702C144.376 55.3006 144.267 54.8041 144.176 54.2804C143.758 54.7319 143.278 55.1563 142.733 55.5535C142.189 55.9508 141.581 56.3029 140.909 56.6099C140.256 56.8988 139.53 57.1246 138.731 57.2871C137.933 57.4677 137.071 57.558 136.145 57.558C134.639 57.558 133.25 57.3412 131.98 56.9079C130.728 56.4744 129.648 55.8696 128.74 55.0931C127.833 54.3164 127.125 53.3955 126.617 52.3301C126.108 51.2466 125.855 50.0727 125.855 48.8086C125.855 45.7207 127.007 43.3369 129.312 41.6576C131.635 39.96 135.092 39.1114 139.684 39.1114H143.904V37.3778C143.904 35.9692 143.441 34.8586 142.515 34.046C141.59 33.2153 140.256 32.8 138.513 32.8C136.971 32.8 135.845 33.1341 135.138 33.8021C134.43 34.4522 134.076 35.3281 134.076 36.4296H126.508C126.508 35.1836 126.78 34.0009 127.325 32.8812C127.887 31.7615 128.695 30.7774 129.747 29.9287C130.818 29.0799 132.116 28.4117 133.64 27.9241C135.183 27.4186 136.943 27.1657 138.922 27.1657C140.7 27.1657 142.352 27.3823 143.876 27.8158C145.419 28.2491 146.753 28.8902 147.878 29.739C149.004 30.5877 149.884 31.6623 150.519 32.9624C151.154 34.2446 151.472 35.7345 151.472 37.4319V50.0006C151.472 51.5716 151.572 52.8718 151.771 53.9011C151.971 54.9305 152.261 55.8153 152.642 56.5558V57.0162H144.965ZM137.751 51.7342C138.513 51.7342 139.221 51.6439 139.875 51.4633C140.528 51.2827 141.118 51.048 141.644 50.7591C142.17 50.4701 142.624 50.145 143.005 49.7838C143.386 49.4045 143.686 49.0255 143.904 48.6462V43.6078H140.038C138.858 43.6078 137.851 43.7252 137.016 43.9599C136.181 44.1768 135.501 44.4927 134.974 44.9081C134.448 45.3054 134.058 45.7929 133.804 46.3708C133.55 46.9306 133.423 47.5446 133.423 48.2127C133.423 49.2241 133.777 50.0638 134.484 50.7319C135.21 51.4001 136.299 51.7342 137.751 51.7342ZM178.832 52.8989C177.833 54.3616 176.627 55.5084 175.211 56.339C173.813 57.1697 172.279 57.585 170.61 57.585C169.086 57.585 167.687 57.3503 166.417 56.8808C165.148 56.4112 164.059 55.6709 163.151 54.6596C162.244 53.6302 161.536 52.3301 161.028 50.7591C160.537 49.1698 160.292 47.2647 160.292 45.0436V27.7075H167.861V45.0976C167.861 46.2896 167.941 47.2919 168.106 48.1044C168.287 48.917 168.569 49.5762 168.95 50.0818C169.331 50.5694 169.829 50.9215 170.447 51.1381C171.064 51.355 171.816 51.4633 172.707 51.4633C174.212 51.4633 175.437 51.1833 176.382 50.6236C177.325 50.0457 178.042 49.2601 178.532 48.267V27.7075H186.128V57.0162H179.267L178.832 52.8989ZM192.743 42.1451C192.743 39.9239 192.997 37.8923 193.505 36.0504C194.031 34.2084 194.793 32.6283 195.792 31.3102C196.789 29.9918 197.997 28.9716 199.413 28.2491C200.847 27.5269 202.479 27.1657 204.313 27.1657C205.856 27.1657 207.208 27.4455 208.369 28.0054C209.549 28.5472 210.593 29.3237 211.499 30.3349V15.4097H219.096V57.0162H212.263L211.882 53.9554C210.955 55.0931 209.867 55.9779 208.614 56.6099C207.362 57.242 205.91 57.558 204.259 57.558C202.462 57.558 200.847 57.1877 199.413 56.4475C197.997 55.689 196.789 54.6505 195.792 53.3324C194.812 52.014 194.059 50.4519 193.532 48.6462C193.006 46.8223 192.743 44.8449 192.743 42.714V42.1451ZM200.311 42.714C200.311 43.9419 200.41 45.0887 200.61 46.1541C200.828 47.2015 201.172 48.1224 201.645 48.917C202.117 49.6935 202.724 50.3076 203.469 50.7591C204.212 51.2104 205.12 51.4362 206.192 51.4362C207.497 51.4362 208.578 51.1563 209.432 50.5965C210.302 50.0366 210.991 49.2692 211.499 48.294V36.4296C210.991 35.4364 210.311 34.6689 209.458 34.1272C208.605 33.5674 207.534 33.2875 206.246 33.2875C205.174 33.2875 204.259 33.5222 203.495 33.9918C202.752 34.4433 202.143 35.0752 201.672 35.888C201.2 36.6825 200.855 37.6216 200.638 38.705C200.42 39.7705 200.311 40.9171 200.311 42.1451V42.714Z" fill="#003FB9"/>
<path d="M200.197 79.5655C200.692 79.5655 201.165 79.4932 201.612 79.3488C202.06 79.2043 202.453 78.9996 202.791 78.7349C203.13 78.47 203.39 78.1508 203.571 77.7778C203.765 77.4046 203.85 76.9891 203.825 76.5317H208.581C208.605 77.5429 208.394 78.482 207.946 79.3488C207.51 80.2156 206.912 80.9621 206.148 81.588C205.386 82.2141 204.497 82.7077 203.481 83.0687C202.476 83.4179 201.412 83.5925 200.286 83.5925C198.762 83.5925 197.426 83.3396 196.275 82.8341C195.126 82.3164 194.164 81.6121 193.39 80.7212C192.628 79.8304 192.047 78.789 191.648 77.5972C191.26 76.3932 191.067 75.1051 191.067 73.7327V73.1909C191.067 71.8185 191.26 70.5362 191.648 69.3444C192.035 68.1406 192.616 67.0932 193.39 66.2022C194.164 65.3114 195.12 64.6071 196.258 64.0894C197.407 63.5718 198.738 63.3129 200.251 63.3129C201.46 63.3129 202.58 63.4935 203.608 63.8547C204.637 64.2159 205.52 64.7275 206.258 65.3897C207.008 66.0398 207.589 66.8343 208.001 67.7734C208.411 68.7003 208.605 69.7417 208.581 70.8974H203.825C203.85 70.4159 203.777 69.9584 203.608 69.525C203.438 69.0916 203.19 68.7185 202.863 68.4054C202.537 68.0924 202.143 67.8455 201.685 67.6651C201.225 67.4724 200.722 67.3761 200.178 67.3761C199.379 67.3761 198.719 67.5386 198.2 67.8637C197.68 68.1887 197.262 68.622 196.947 69.1638C196.645 69.7056 196.427 70.3256 196.294 71.0238C196.173 71.7222 196.113 72.4444 196.113 73.1909V73.7327C196.113 74.491 196.173 75.2255 196.294 75.9357C196.415 76.6341 196.627 77.254 196.929 77.7958C197.243 78.3254 197.661 78.7529 198.182 79.0779C198.714 79.4029 199.385 79.5655 200.197 79.5655ZM218.871 66.3648C219.525 65.4137 220.318 64.6672 221.248 64.1256C222.193 63.5838 223.245 63.3129 224.406 63.3129C225.434 63.3129 226.379 63.4694 227.239 63.7824C228.097 64.0834 228.835 64.5589 229.452 65.2091C230.07 65.8592 230.547 66.6958 230.886 67.7192C231.238 68.7305 231.413 69.9524 231.413 71.385V83.2133H226.367V71.3489C226.367 70.6507 226.275 70.0487 226.094 69.5431C225.925 69.0375 225.678 68.6282 225.351 68.3151C225.024 68.0021 224.631 67.7734 224.171 67.6289C223.711 67.4725 223.19 67.3942 222.61 67.3942C221.762 67.3942 221.025 67.5446 220.397 67.8455C219.779 68.1466 219.271 68.5679 218.871 69.1097V83.2133H213.825V55.4756H218.871V66.3648ZM245.678 83.5745C244.165 83.5745 242.793 83.3276 241.558 82.8341C240.324 82.3405 239.265 81.6723 238.382 80.8295C237.499 79.9748 236.814 78.9756 236.331 77.8319C235.859 76.6761 235.624 75.4421 235.624 74.13V73.4075C235.624 71.9148 235.859 70.5544 236.331 69.3264C236.802 68.0864 237.462 67.0209 238.309 66.1301C239.156 65.2391 240.16 64.5469 241.321 64.0533C242.483 63.5597 243.748 63.3129 245.116 63.3129C246.531 63.3129 247.789 63.5477 248.89 64.0173C250.003 64.4746 250.94 65.1248 251.702 65.9675C252.477 66.8103 253.064 67.8275 253.463 69.0194C253.863 70.1992 254.063 71.5054 254.063 72.938V75.0689H240.74C240.838 75.731 241.032 76.3391 241.321 76.8928C241.625 77.4346 242.006 77.9041 242.466 78.3014C242.924 78.6987 243.451 79.0056 244.044 79.2224C244.637 79.4391 245.284 79.5474 245.986 79.5474C246.482 79.5474 246.973 79.4992 247.456 79.4029C247.953 79.3066 248.424 79.1682 248.871 78.9876C249.319 78.795 249.737 78.5603 250.124 78.2834C250.511 78.0065 250.851 77.6815 251.14 77.3082L253.663 80.017C253.349 80.4623 252.937 80.9018 252.429 81.3351C251.933 81.7566 251.34 82.1358 250.651 82.4728C249.972 82.798 249.217 83.0627 248.382 83.2675C247.547 83.4722 246.646 83.5745 245.678 83.5745ZM245.078 67.3761C244.51 67.3761 243.99 67.4785 243.517 67.6831C243.047 67.8757 242.628 68.1586 242.266 68.5319C241.914 68.9049 241.619 69.3505 241.375 69.8681C241.134 70.3858 240.953 70.9637 240.832 71.6017H249.108V71.2044C249.083 70.6748 248.981 70.1752 248.798 69.7056C248.617 69.2361 248.357 68.8328 248.019 68.4957C247.68 68.1466 247.262 67.8757 246.767 67.6831C246.282 67.4785 245.72 67.3761 245.078 67.3761ZM267.166 79.5655C267.662 79.5655 268.134 79.4932 268.582 79.3488C269.029 79.2043 269.423 78.9996 269.762 78.7349C270.1 78.47 270.36 78.1508 270.542 77.7778C270.734 77.4046 270.82 76.9891 270.796 76.5317H275.551C275.576 77.5429 275.364 78.482 274.916 79.3488C274.479 80.2156 273.881 80.9621 273.12 81.588C272.356 82.2141 271.467 82.7077 270.451 83.0687C269.446 83.4179 268.382 83.5925 267.256 83.5925C265.732 83.5925 264.396 83.3396 263.246 82.8341C262.096 82.3164 261.134 81.6121 260.36 80.7212C259.598 79.8304 259.017 78.789 258.617 77.5972C258.23 76.3932 258.037 75.1051 258.037 73.7327V73.1909C258.037 71.8185 258.23 70.5362 258.617 69.3444C259.005 68.1406 259.585 67.0932 260.36 66.2022C261.134 65.3114 262.09 64.6071 263.228 64.0894C264.377 63.5718 265.707 63.3129 267.22 63.3129C268.43 63.3129 269.55 63.4935 270.578 63.8547C271.606 64.2159 272.489 64.7275 273.228 65.3897C273.978 66.0398 274.558 66.8343 274.97 67.7734C275.381 68.7003 275.576 69.7417 275.551 70.8974H270.796C270.82 70.4159 270.747 69.9584 270.578 69.525C270.409 69.0916 270.16 68.7185 269.833 68.4054C269.508 68.0924 269.115 67.8455 268.655 67.6651C268.195 67.4724 267.693 67.3761 267.148 67.3761C266.349 67.3761 265.69 67.5386 265.17 67.8637C264.65 68.1887 264.231 68.622 263.917 69.1638C263.615 69.7056 263.397 70.3256 263.263 71.0238C263.143 71.7222 263.082 72.4444 263.082 73.1909V73.7327C263.082 74.491 263.143 75.2255 263.263 75.9357C263.384 76.6341 263.596 77.254 263.898 77.7958C264.214 78.3254 264.631 78.7529 265.151 79.0779C265.684 79.4029 266.355 79.5655 267.166 79.5655ZM288.182 75.1412L285.896 77.254V83.2133H280.851V55.4756H285.896V71.3309L287.42 69.5973L292.847 63.6741H298.909L291.504 71.8185L299.943 83.2133H293.755L288.182 75.1412Z" fill="#003FB9"/>
<path d="M26.0694 58.9978H4.8232C3.54401 58.9978 2.31721 59.508 1.41268 60.4163C0.508158 61.3245 0 62.5564 0 63.841V67.4732L0.0120583 68.0301C0.397915 76.0553 9.11105 78.3701 15.6755 78.3701C18.1593 78.3701 20.9545 78.0385 23.4866 77.191C22.9237 76.1134 22.4889 74.973 22.1916 73.7934C20.3263 74.3687 18.3907 74.6824 16.44 74.7257L15.6755 74.7379L14.9109 74.7257C11.8651 74.6314 9.02664 73.9799 7.03465 72.9024C4.70264 71.6431 3.6174 69.9166 3.6174 67.4732V63.8385L3.64152 63.594C3.68962 63.3622 3.80353 63.1494 3.9695 62.9813C4.13726 62.8151 4.34903 62.7008 4.57964 62.652L4.8232 62.6278H23.4697C24.16 61.3004 25.0346 60.0782 26.0671 58.9978H26.0694ZM26.5277 43.2577C26.5277 40.3678 25.3843 37.596 23.3491 35.5525C21.3139 33.5089 18.5536 32.3608 15.6755 32.3608C12.7972 32.3608 10.0369 33.5089 8.00175 35.5525C5.96656 37.596 4.8232 40.3678 4.8232 43.2577C4.8232 46.1479 5.96656 48.9195 8.00175 50.9631C10.0369 53.0066 12.7972 54.1548 15.6755 54.1548C18.5536 54.1548 21.3139 53.0066 23.3491 50.9631C25.3843 48.9195 26.5277 46.1479 26.5277 43.2577ZM8.44062 43.2577C8.44062 39.2526 11.6866 35.9931 15.6755 35.9931C19.6642 35.9931 22.9102 39.2526 22.9102 43.2577C22.9102 47.2631 19.6642 50.5224 15.6755 50.5224C11.6866 50.5224 8.44062 47.2631 8.44062 43.2577ZM45.8205 45.6794C45.8205 43.4316 44.9313 41.2757 43.3483 39.6864C41.7654 38.0968 39.6185 37.204 37.3799 37.204C35.1413 37.204 32.9944 38.0968 31.4114 39.6864C29.8285 41.2757 28.9392 43.4316 28.9392 45.6794C28.9392 47.9271 29.8285 50.0829 31.4114 51.6723C32.9944 53.2618 35.1413 54.1548 37.3799 54.1548C39.6185 54.1548 41.7654 53.2618 43.3483 51.6723C44.9313 50.0829 45.8205 47.9271 45.8205 45.6794ZM32.5567 45.6794C32.5567 43.0084 34.7199 40.8362 37.3799 40.8362C40.0399 40.8362 42.203 43.0084 42.203 45.6794C42.203 48.3502 40.0399 50.5224 37.3799 50.5224C34.7199 50.5224 32.5567 48.3502 32.5567 45.6794ZM50.6437 69.8947C50.6437 73.4271 49.2463 76.8147 46.7587 79.3125C44.2713 81.8101 40.8976 83.2133 37.3799 83.2133C33.8621 83.2133 30.4884 81.8101 28.001 79.3125C25.5134 76.8147 24.116 73.4271 24.116 69.8947C24.116 66.3625 25.5134 62.9749 28.001 60.4772C30.4884 57.9795 33.8621 56.5763 37.3799 56.5763C40.8976 56.5763 44.2713 57.9795 46.7587 60.4772C49.2463 62.9749 50.6437 66.3625 50.6437 69.8947ZM45.4683 64.1945C45.3564 64.0817 45.2233 63.9923 45.0768 63.9313C44.9303 63.8703 44.7733 63.8388 44.6147 63.8388C44.4561 63.8388 44.2991 63.8703 44.1526 63.9313C44.006 63.9923 43.873 64.0817 43.761 64.1945L34.9682 73.0259L30.9988 69.0376C30.7724 68.8102 30.4653 68.6824 30.145 68.6824C29.8249 68.6824 29.5178 68.8102 29.2914 69.0376C29.0649 69.2649 28.9378 69.5733 28.9378 69.8947C28.9378 70.2163 29.0649 70.5247 29.2914 70.752L34.1145 75.5951C34.2265 75.7079 34.3597 75.7973 34.5061 75.8583C34.6526 75.9194 34.8096 75.9508 34.9682 75.9508C35.1269 75.9508 35.284 75.9194 35.4303 75.8583C35.5768 75.7973 35.71 75.7079 35.822 75.5951L45.4683 65.909C45.5806 65.7965 45.6698 65.6629 45.7305 65.5157C45.7914 65.3687 45.8227 65.2109 45.8227 65.0517C45.8227 64.8924 45.7914 64.7347 45.7305 64.5876C45.6698 64.4406 45.5806 64.307 45.4683 64.1945Z" fill="#003FB9"/>
<path d="M216.821 52.3936H212.174V83.2132H216.821V52.3936Z" fill="#003FB9"/>
</svg>
