<svg width="173" height="54" viewBox="0 0 173 54" fill="none" xmlns="http://www.w3.org/2000/svg">
<path d="M48.3911 23.3709H38.6599V32.7542H34.2621V10.0974H49.6075V13.6608H38.6599V19.823H48.3911V23.3709ZM65.4364 15.606C66.0914 15.606 66.6944 15.6526 67.2455 15.746C67.8069 15.8291 68.2592 15.9224 68.6022 16.0261L67.9628 20.3366C67.391 20.2017 66.8036 20.1031 66.2006 20.0409C65.608 19.9682 65.0414 19.9319 64.5007 19.9319C63.2843 19.9319 62.3071 20.1654 61.5688 20.6322C60.8411 21.099 60.2953 21.7681 59.9314 22.6395V32.7542H55.596V15.9172H59.6352L59.8379 18.6715C60.524 17.7171 61.3454 16.9702 62.3018 16.4307C63.2583 15.8809 64.3032 15.606 65.4364 15.606ZM83.0431 32.7542C82.9391 32.5467 82.8508 32.3081 82.778 32.0384C82.7053 31.7686 82.6428 31.4834 82.5909 31.1825C82.3517 31.4419 82.0763 31.6857 81.7643 31.9139C81.4524 32.1421 81.1042 32.3444 80.7195 32.5207C80.3452 32.6867 79.9294 32.8164 79.4719 32.9098C79.0144 33.0136 78.5206 33.0654 77.9904 33.0654C77.1274 33.0654 76.3321 32.9409 75.6044 32.6919C74.887 32.4429 74.2684 32.0955 73.7486 31.6494C73.2287 31.2032 72.8233 30.6742 72.5322 30.0621C72.241 29.4397 72.0955 28.7653 72.0955 28.0392C72.0955 26.2652 72.7557 24.8959 74.076 23.9311C75.4068 22.9559 77.3873 22.4684 80.0177 22.4684H82.435V21.4725C82.435 20.6633 82.1698 20.0253 81.6396 19.5585C81.1093 19.0813 80.3452 18.8427 79.3471 18.8427C78.4634 18.8427 77.8188 19.0346 77.4133 19.4184C77.0079 19.7919 76.8052 20.2951 76.8052 20.9278H72.4697C72.4697 20.212 72.6257 19.5326 72.9376 18.8894C73.2599 18.2461 73.7226 17.6808 74.3255 17.1932C74.939 16.7056 75.6823 16.3218 76.5556 16.0417C77.4393 15.7513 78.4478 15.606 79.5811 15.606C80.5999 15.606 81.546 15.7305 82.4193 15.9795C83.3031 16.2284 84.0672 16.5967 84.7118 17.0843C85.3563 17.5719 85.8606 18.1891 86.2245 18.936C86.5884 19.6726 86.7703 20.5285 86.7703 21.5036V28.7239C86.7703 29.6264 86.8275 30.3733 86.9418 30.9647C87.0563 31.556 87.2226 32.0643 87.4409 32.4897V32.7542H83.0431ZM78.9105 29.7198C79.3471 29.7198 79.7526 29.6679 80.1269 29.5642C80.5012 29.4604 80.839 29.3256 81.1406 29.1596C81.442 28.9937 81.702 28.8069 81.9203 28.5994C82.1386 28.3815 82.3101 28.1637 82.435 27.9459V25.0515H80.2205C79.5447 25.0515 78.9677 25.1189 78.4894 25.2538C78.0111 25.3783 77.6213 25.5598 77.3197 25.7984C77.0183 26.0267 76.7947 26.3068 76.6492 26.6387C76.5036 26.9603 76.4309 27.313 76.4309 27.6969C76.4309 28.2778 76.6336 28.7602 77.039 29.1441C77.455 29.5279 78.0787 29.7198 78.9105 29.7198ZM102.444 30.3889C101.871 31.2292 101.18 31.888 100.369 32.3651C99.5682 32.8424 98.6899 33.0809 97.7335 33.0809C96.8605 33.0809 96.0594 32.9461 95.3319 32.6764C94.6044 32.4066 93.9807 31.9814 93.4608 31.4004C92.9409 30.809 92.5355 30.0621 92.2445 29.1596C91.9633 28.2467 91.8231 27.1523 91.8231 25.8763V15.9172H96.1587V25.9073C96.1587 26.5921 96.2049 27.1678 96.2989 27.6346C96.4027 28.1014 96.5642 28.4801 96.7824 28.7706C97.0007 29.0507 97.2863 29.2529 97.6403 29.3774C97.9934 29.502 98.4246 29.5642 98.9347 29.5642C99.7971 29.5642 100.499 29.4033 101.04 29.0818C101.58 28.7499 101.991 28.2986 102.271 27.728V15.9172H106.623V32.7542H102.693L102.444 30.3889ZM110.412 24.2112C110.412 22.9352 110.558 21.7681 110.849 20.71C111.15 19.6518 111.587 18.7441 112.159 17.9869C112.73 17.2295 113.422 16.6434 114.233 16.2284C115.055 15.8135 115.99 15.606 117.04 15.606C117.924 15.606 118.698 15.7668 119.364 16.0884C120.04 16.3996 120.638 16.8457 121.157 17.4266V8.85254H125.508V32.7542H121.594L121.376 30.9958C120.845 31.6494 120.222 32.1577 119.504 32.5207C118.787 32.8839 117.955 33.0654 117.009 33.0654C115.98 33.0654 115.055 32.8527 114.233 32.4274C113.422 31.9917 112.73 31.3952 112.159 30.6379C111.597 29.8806 111.166 28.9832 110.865 27.9459C110.563 26.8981 110.412 25.7622 110.412 24.538V24.2112ZM114.748 24.538C114.748 25.2434 114.805 25.9022 114.919 26.5143C115.044 27.116 115.241 27.645 115.512 28.1014C115.782 28.5475 116.13 28.9003 116.557 29.1596C116.983 29.4189 117.502 29.5486 118.116 29.5486C118.864 29.5486 119.484 29.3879 119.972 29.0662C120.471 28.7446 120.866 28.3038 121.157 27.7435V20.9278C120.866 20.3573 120.476 19.9163 119.987 19.6052C119.499 19.2836 118.886 19.1228 118.147 19.1228C117.534 19.1228 117.009 19.2576 116.572 19.5274C116.146 19.7867 115.797 20.1498 115.528 20.6167C115.257 21.0731 115.059 21.6126 114.935 22.235C114.81 22.847 114.748 23.5057 114.748 24.2112V24.538Z" fill="white"/>
<path d="M114.682 45.7075C114.966 45.7075 115.237 45.666 115.493 45.5831C115.749 45.5 115.975 45.3825 116.168 45.2304C116.362 45.0782 116.512 44.8949 116.615 44.6805C116.726 44.4661 116.775 44.2275 116.761 43.9647H119.485C119.499 44.5456 119.378 45.0851 119.122 45.5831C118.871 46.081 118.529 46.5098 118.092 46.8694C117.655 47.2291 117.146 47.5126 116.564 47.72C115.988 47.9206 115.379 48.0209 114.734 48.0209C113.861 48.0209 113.095 47.8757 112.436 47.5852C111.778 47.2879 111.227 46.8832 110.783 46.3715C110.346 45.8597 110.014 45.2614 109.785 44.5768C109.563 43.8852 109.452 43.1452 109.452 42.3568V42.0455C109.452 41.2571 109.563 40.5205 109.785 39.8359C110.007 39.1443 110.339 38.5426 110.783 38.0308C111.227 37.519 111.774 37.1144 112.426 36.817C113.084 36.5196 113.846 36.3709 114.713 36.3709C115.406 36.3709 116.047 36.4747 116.637 36.6822C117.226 36.8897 117.731 37.1836 118.155 37.564C118.584 37.9375 118.917 38.3939 119.153 38.9334C119.388 39.4658 119.499 40.0641 119.485 40.728H116.761C116.775 40.4514 116.733 40.1885 116.637 39.9396C116.539 39.6906 116.397 39.4763 116.21 39.2964C116.023 39.1166 115.797 38.9748 115.535 38.8711C115.271 38.7605 114.983 38.7051 114.671 38.7051C114.214 38.7051 113.836 38.7984 113.539 38.9852C113.24 39.1719 113.001 39.4209 112.821 39.7321C112.648 40.0434 112.523 40.3995 112.446 40.8006C112.377 41.2018 112.343 41.6167 112.343 42.0455V42.3568C112.343 42.7924 112.377 43.2143 112.446 43.6223C112.516 44.0235 112.637 44.3797 112.81 44.6909C112.99 44.9952 113.23 45.2407 113.528 45.4274C113.833 45.6141 114.217 45.7075 114.682 45.7075ZM125.38 38.1242C125.754 37.5778 126.208 37.149 126.742 36.8378C127.283 36.5266 127.885 36.3709 128.551 36.3709C129.14 36.3709 129.681 36.4609 130.173 36.6407C130.665 36.8135 131.088 37.0867 131.441 37.4602C131.795 37.8337 132.068 38.3143 132.262 38.9022C132.464 39.4832 132.564 40.1851 132.564 41.0081V47.8031H129.674V40.9874C129.674 40.5863 129.621 40.2404 129.518 39.95C129.421 39.6595 129.279 39.4244 129.092 39.2445C128.905 39.0647 128.679 38.9334 128.416 38.8503C128.152 38.7605 127.854 38.7155 127.521 38.7155C127.036 38.7155 126.614 38.8019 126.254 38.9748C125.9 39.1478 125.609 39.3898 125.38 39.701V47.8031H122.489V31.8687H125.38V38.1242ZM140.736 48.0106C139.869 48.0106 139.083 47.8688 138.376 47.5852C137.669 47.3017 137.062 46.9178 136.556 46.4337C136.051 45.9426 135.659 45.3687 135.382 44.7116C135.111 44.0477 134.976 43.3388 134.976 42.585V42.17C134.976 41.3125 135.111 40.531 135.382 39.8255C135.652 39.1132 136.029 38.5011 136.515 37.9893C137 37.4775 137.575 37.0798 138.24 36.7963C138.906 36.5127 139.631 36.3709 140.414 36.3709C141.225 36.3709 141.945 36.5058 142.576 36.7756C143.214 37.0383 143.751 37.4118 144.187 37.8959C144.631 38.3801 144.967 38.9644 145.196 39.6492C145.425 40.3269 145.539 41.0772 145.539 41.9003V43.1244H137.908C137.964 43.5048 138.074 43.8541 138.24 44.1722C138.414 44.4834 138.632 44.7531 138.896 44.9814C139.159 45.2096 139.46 45.3859 139.8 45.5105C140.14 45.6349 140.511 45.6972 140.912 45.6972C141.196 45.6972 141.478 45.6695 141.754 45.6141C142.039 45.5588 142.309 45.4793 142.565 45.3756C142.822 45.2649 143.061 45.1301 143.283 44.971C143.505 44.8119 143.699 44.6252 143.865 44.4108L145.31 45.9669C145.13 46.2227 144.894 46.4752 144.603 46.7241C144.319 46.9663 143.979 47.1841 143.585 47.3777C143.196 47.5645 142.763 47.7166 142.285 47.8342C141.807 47.9518 141.29 48.0106 140.736 48.0106ZM140.393 38.7051C140.067 38.7051 139.769 38.7639 139.498 38.8815C139.229 38.9921 138.989 39.1547 138.781 39.3691C138.58 39.5834 138.411 39.8393 138.271 40.1367C138.133 40.4341 138.029 40.7661 137.96 41.1326H142.701V40.9044C142.687 40.6001 142.628 40.3131 142.524 40.0434C142.42 39.7736 142.271 39.542 142.077 39.3483C141.883 39.1478 141.644 38.9921 141.36 38.8815C141.082 38.7639 140.76 38.7051 140.393 38.7051ZM153.046 45.7075C153.329 45.7075 153.6 45.666 153.856 45.5831C154.113 45.5 154.338 45.3825 154.532 45.2304C154.726 45.0782 154.875 44.8949 154.98 44.6805C155.09 44.4661 155.138 44.2275 155.125 43.9647H157.849C157.863 44.5456 157.741 45.0851 157.485 45.5831C157.235 46.081 156.892 46.5098 156.456 46.8694C156.018 47.2291 155.509 47.5126 154.927 47.72C154.351 47.9206 153.742 48.0209 153.097 48.0209C152.224 48.0209 151.458 47.8757 150.8 47.5852C150.141 47.2879 149.59 46.8832 149.146 46.3715C148.71 45.8597 148.377 45.2614 148.148 44.5768C147.927 43.8852 147.816 43.1452 147.816 42.3568V42.0455C147.816 41.2571 147.927 40.5205 148.148 39.8359C148.37 39.1443 148.703 38.5426 149.146 38.0308C149.59 37.519 150.137 37.1144 150.789 36.817C151.448 36.5196 152.21 36.3709 153.077 36.3709C153.769 36.3709 154.411 36.4747 155 36.6822C155.589 36.8897 156.095 37.1836 156.518 37.564C156.947 37.9375 157.28 38.3939 157.516 38.9334C157.751 39.4658 157.863 40.0641 157.849 40.728H155.125C155.138 40.4514 155.097 40.1885 155 39.9396C154.903 39.6906 154.76 39.4763 154.573 39.2964C154.387 39.1166 154.162 38.9748 153.898 38.8711C153.635 38.7605 153.347 38.7051 153.035 38.7051C152.577 38.7051 152.2 38.7984 151.902 38.9852C151.604 39.1719 151.364 39.4209 151.184 39.7321C151.011 40.0434 150.886 40.3995 150.81 40.8006C150.741 41.2018 150.706 41.6167 150.706 42.0455V42.3568C150.706 42.7924 150.741 43.2143 150.81 43.6223C150.879 44.0235 151.001 44.3797 151.174 44.6909C151.355 44.9952 151.593 45.2407 151.891 45.4274C152.197 45.6141 152.581 45.7075 153.046 45.7075ZM165.085 43.1659L163.775 44.3797V47.8031H160.885V31.8687H163.775V40.977L164.648 39.9811L167.757 36.5784H171.229L166.988 41.2571L171.822 47.8031H168.277L165.085 43.1659Z" fill="white"/>
<path d="M14.9338 33.8924H2.76296C2.03018 33.8924 1.32741 34.1855 0.809253 34.7073C0.291097 35.2291 0 35.9367 0 36.6747V38.7613L0.00690757 39.0812C0.227945 43.6914 5.21924 45.0212 8.97968 45.0212C10.4025 45.0212 12.0037 44.8307 13.4543 44.3438C13.1318 43.7248 12.8827 43.0697 12.7124 42.392C11.6439 42.7225 10.5351 42.9027 9.41759 42.9276L8.97968 42.9346L8.5417 42.9276C6.7969 42.8734 5.17089 42.4991 4.02978 41.8802C2.69389 41.1568 2.07222 40.1649 2.07222 38.7613V36.6732L2.08603 36.5328C2.11359 36.3996 2.17884 36.2774 2.27392 36.1808C2.37002 36.0854 2.49133 36.0197 2.62343 35.9916L2.76296 35.9777H13.4446C13.84 35.2152 14.341 34.5131 14.9325 33.8924H14.9338ZM15.1963 24.8503C15.1963 23.1901 14.5413 21.5978 13.3755 20.4239C12.2096 19.2498 10.6284 18.5903 8.97968 18.5903C7.33087 18.5903 5.74963 19.2498 4.58378 20.4239C3.41793 21.5978 2.76296 23.1901 2.76296 24.8503C2.76296 26.5105 3.41793 28.1027 4.58378 29.2768C5.74963 30.4507 7.33087 31.1103 8.97968 31.1103C10.6284 31.1103 12.2096 30.4507 13.3755 29.2768C14.5413 28.1027 15.1963 26.5105 15.1963 24.8503ZM4.83519 24.8503C4.83519 22.5494 6.69467 20.6769 8.97968 20.6769C11.2646 20.6769 13.124 22.5494 13.124 24.8503C13.124 27.1512 11.2646 29.0236 8.97968 29.0236C6.69467 29.0236 4.83519 27.1512 4.83519 24.8503ZM26.2482 26.2414C26.2482 24.9501 25.7388 23.7117 24.832 22.7986C23.9252 21.8855 22.6954 21.3726 21.413 21.3726C20.1306 21.3726 18.9007 21.8855 17.994 22.7986C17.0872 23.7117 16.5777 24.9501 16.5777 26.2414C16.5777 27.5326 17.0872 28.7711 17.994 29.6841C18.9007 30.5973 20.1306 31.1103 21.413 31.1103C22.6954 31.1103 23.9252 30.5973 24.832 29.6841C25.7388 28.7711 26.2482 27.5326 26.2482 26.2414ZM18.65 26.2414C18.65 24.707 19.8892 23.4592 21.413 23.4592C22.9368 23.4592 24.1759 24.707 24.1759 26.2414C24.1759 27.7757 22.9368 29.0236 21.413 29.0236C19.8892 29.0236 18.65 27.7757 18.65 26.2414ZM29.0111 40.1524C29.0111 42.1816 28.2106 44.1276 26.7856 45.5625C25.3607 46.9973 23.4281 47.8034 21.413 47.8034C19.3978 47.8034 17.4652 46.9973 16.0403 45.5625C14.6153 44.1276 13.8148 42.1816 13.8148 40.1524C13.8148 38.1232 14.6153 36.1772 16.0403 34.7423C17.4652 33.3075 19.3978 32.5014 21.413 32.5014C23.4281 32.5014 25.3607 33.3075 26.7856 34.7423C28.2106 36.1772 29.0111 38.1232 29.0111 40.1524ZM26.0464 36.8777C25.9823 36.8129 25.9061 36.7616 25.8222 36.7265C25.7382 36.6915 25.6483 36.6734 25.5574 36.6734C25.4666 36.6734 25.3766 36.6915 25.2927 36.7265C25.2088 36.7616 25.1326 36.8129 25.0684 36.8777L20.0314 41.9511L17.7576 39.66C17.6279 39.5293 17.452 39.4559 17.2685 39.4559C17.0851 39.4559 16.9092 39.5293 16.7795 39.66C16.6498 39.7906 16.5769 39.9677 16.5769 40.1524C16.5769 40.3371 16.6498 40.5142 16.7795 40.6448L19.5424 43.4271C19.6066 43.4919 19.6829 43.5432 19.7667 43.5783C19.8506 43.6133 19.9406 43.6314 20.0314 43.6314C20.1224 43.6314 20.2123 43.6133 20.2962 43.5783C20.3801 43.5432 20.4564 43.4919 20.5205 43.4271L26.0464 37.8627C26.1108 37.798 26.1619 37.7213 26.1966 37.6368C26.2315 37.5523 26.2494 37.4616 26.2494 37.3702C26.2494 37.2787 26.2315 37.1881 26.1966 37.1036C26.1619 37.0191 26.1108 36.9424 26.0464 36.8777Z" fill="white"/>
<path d="M124.205 30.0981H121.544V47.8031H124.205V30.0981Z" fill="white"/>
</svg>
