<svg width="306" height="439" viewBox="0 0 306 439" fill="none" xmlns="http://www.w3.org/2000/svg">
<mask id="mask0_137_7" style="mask-type:luminance" maskUnits="userSpaceOnUse" x="0" y="0" width="585" height="439">
<rect width="585" height="438.75" fill="white"/>
</mask>
<g mask="url(#mask0_137_7)">
<path d="M488.727 251.791C488.732 249.195 486.631 247.088 484.036 247.083H294.886C292.291 247.088 290.191 249.195 290.195 251.791L389.461 315.392L488.727 251.791Z" fill="white" stroke="#1B1B1B" stroke-width="0.7" stroke-linecap="round" stroke-linejoin="round"/>
<path d="M295.006 112.556H295.006C286.215 112.556 279.089 119.707 279.089 128.528V212.574H310.923V128.528C310.923 119.707 303.796 112.556 295.006 112.556Z" fill="white" stroke="#1B1B1B" stroke-width="0.7" stroke-linecap="round" stroke-linejoin="round"/>
<path d="M456.393 112.556H338.643V112.556H295.005C303.796 112.556 310.922 119.707 310.922 128.528V140.362V334.68H472.31V128.528C472.31 119.707 465.184 112.556 456.393 112.556Z" fill="white"/>
<mask id="mask1_137_7" style="mask-type:luminance" maskUnits="userSpaceOnUse" x="295" y="112" width="178" height="223">
<path fill-rule="evenodd" clip-rule="evenodd" d="M456.396 112.557H338.645V112.557H295.008C303.798 112.557 310.924 119.708 310.924 128.529V140.363V334.681H472.312V128.529C472.312 119.708 465.186 112.557 456.396 112.557Z" fill="white"/>
</mask>
<g mask="url(#mask1_137_7)">
<path d="M472.313 116.173C463.992 336.788 279.091 274.284 279.091 274.284L310.925 361.301L479.964 399.013L525.061 190.5L472.313 116.173Z" fill="white"/>
</g>
<path fill-rule="evenodd" clip-rule="evenodd" d="M456.393 112.556H338.643V112.556H295.005C303.796 112.556 310.922 119.707 310.922 128.528V140.362V140.362V334.68H472.31V128.528C472.31 119.707 465.184 112.556 456.393 112.556Z" stroke="#1B1B1B" stroke-width="0.7" stroke-linecap="round" stroke-linejoin="round"/>
<path d="M389.461 315.392L290.195 251.791V371.624C290.183 378.283 295.572 383.69 302.231 383.702H476.692C483.35 383.69 488.739 378.283 488.727 371.624V251.791L389.461 315.392Z" fill="white"/>
<path fill-rule="evenodd" clip-rule="evenodd" d="M389.461 315.392L290.195 251.791V371.624C290.183 378.283 295.572 383.69 302.231 383.702H476.692C483.35 383.69 488.739 378.283 488.727 371.624V251.791L389.461 315.392Z" stroke="#1B1B1B" stroke-width="0.7" stroke-linecap="round" stroke-linejoin="round"/>
<rect x="251.439" y="243.17" width="27.4384" height="60.3192" fill="white"/>
<mask id="mask2_137_7" style="mask-type:luminance" maskUnits="userSpaceOnUse" x="251" y="243" width="28" height="61">
<rect x="251.437" y="243.171" width="27.4384" height="60.3192" fill="white"/>
</mask>
<g mask="url(#mask2_137_7)">
<path d="M284.487 252.346C277.284 273.402 254.423 256.655 253.796 271.517C253.17 286.378 275.242 288.983 287.537 286.378C299.833 283.773 278.875 310.486 278.875 310.486L231.248 296.344L242.522 250.775L262.878 251.718" fill="white"/>
</g>
<rect x="251.439" y="243.17" width="27.4384" height="60.3192" stroke="#1B1B1B" stroke-width="0.7" stroke-linecap="round" stroke-linejoin="round"/>
<path d="M265.157 383.7C251.645 383.7 240.78 372.541 241.094 358.985L242.776 286.376H287.539L289.221 358.985C289.535 372.541 278.67 383.7 265.157 383.7Z" fill="white"/>
<mask id="mask3_137_7" style="mask-type:luminance" maskUnits="userSpaceOnUse" x="241" y="286" width="49" height="98">
<path fill-rule="evenodd" clip-rule="evenodd" d="M265.155 383.701C251.643 383.701 240.778 372.541 241.092 358.985L242.774 286.377H287.537L289.219 358.985C289.533 372.541 278.668 383.701 265.155 383.701Z" fill="white"/>
</mask>
<g mask="url(#mask3_137_7)">
<path d="M285.422 276.231C288.826 388.046 256.923 367.941 235.627 370.797C214.332 373.654 265.151 408.223 265.151 408.223L312.669 413.88L319.814 325.257L294.504 290.497" fill="white"/>
</g>
<path fill-rule="evenodd" clip-rule="evenodd" d="M265.157 383.7V383.7C251.645 383.7 240.78 372.541 241.094 358.985L242.776 286.376H287.539L289.221 358.985C289.535 372.541 278.67 383.7 265.157 383.7Z" stroke="#1B1B1B" stroke-width="0.7" stroke-linecap="round" stroke-linejoin="round"/>
<path fill-rule="evenodd" clip-rule="evenodd" d="M189.296 187.769C189.296 146.027 223.017 112.188 264.614 112.188C306.211 112.188 339.932 146.027 339.932 187.769C339.932 229.512 306.211 263.35 264.614 263.35C223.017 263.35 189.296 229.512 189.296 187.769ZM209.405 187.768C209.405 218.365 234.123 243.169 264.614 243.169C295.105 243.169 319.823 218.365 319.823 187.768C319.823 157.17 295.105 132.366 264.614 132.366C234.123 132.366 209.405 157.17 209.405 187.768Z" fill="#1B1B1B"/>
<path d="M339.932 187.769H340.282H339.932ZM264.614 111.838C222.822 111.838 188.946 145.835 188.946 187.769H189.646C189.646 146.219 223.211 112.538 264.614 112.538V111.838ZM188.946 187.769C188.946 229.704 222.822 263.7 264.614 263.7V263C223.211 263 189.646 229.319 189.646 187.769H188.946ZM264.614 263.7C306.406 263.7 340.282 229.704 340.282 187.769H339.582C339.582 229.319 306.017 263 264.614 263V263.7ZM340.282 187.769C340.282 145.835 306.406 111.838 264.614 111.838V112.538C306.017 112.538 339.582 146.219 339.582 187.769H340.282ZM264.614 242.819C234.317 242.819 209.755 218.173 209.755 187.768H209.055C209.055 218.557 233.928 243.519 264.614 243.519V242.819ZM209.755 187.768C209.755 157.363 234.317 132.716 264.614 132.716V132.016C233.928 132.016 209.055 156.978 209.055 187.768H209.755ZM264.614 132.716C294.91 132.716 319.473 157.363 319.473 187.768H320.173C320.173 156.978 295.299 132.016 264.614 132.016V132.716ZM319.473 187.768C319.473 218.173 294.91 242.819 264.614 242.819V243.519C295.299 243.519 320.173 218.557 320.173 187.768H319.473Z" fill="#1B1B1B"/>
<path d="M232.739 130.631C229.5 134.09 225.697 136.973 221.492 139.157" stroke="#1B1B1B" stroke-width="0.7" stroke-linecap="round" stroke-linejoin="round"/>
<path d="M272.219 333.342L269.4 337.113" stroke="#1B1B1B" stroke-width="0.7" stroke-linecap="round" stroke-linejoin="round"/>
<rect x="65.8498" y="254.401" width="259.047" height="65.7689" rx="9.26912" fill="white"/>
<rect x="65.8498" y="254.401" width="259.047" height="65.7689" rx="9.26912" stroke="#1B1B1B" stroke-width="0.7" stroke-linecap="round" stroke-linejoin="round"/>
<g opacity="0.49">
<rect x="143.897" y="271.596" width="149.137" height="10.3773" rx="2.5263" fill="white" stroke="#1B1B1B" stroke-width="0.7" stroke-linecap="round" stroke-linejoin="round"/>
<rect x="143.897" y="287.289" width="54.5196" height="10.2205" rx="2.5263" fill="white" stroke="#1B1B1B" stroke-width="0.7" stroke-linecap="round" stroke-linejoin="round"/>
<rect x="204.419" y="287.289" width="54.5196" height="10.2205" rx="2.5263" fill="white" stroke="#1B1B1B" stroke-width="0.7" stroke-linecap="round" stroke-linejoin="round"/>
</g>
<path d="M105.493 300.466C104.487 300.467 103.517 300.088 102.778 299.406L89.2057 286.921C87.57 285.421 87.4578 282.88 88.9549 281.241C90.452 279.602 92.9931 279.485 94.6349 280.979L105.446 290.924L124.595 272.702C125.64 271.715 127.132 271.36 128.51 271.771C129.888 272.182 130.941 273.297 131.274 274.696C131.607 276.094 131.168 277.564 130.123 278.552L108.257 299.359C107.512 300.07 106.522 300.466 105.493 300.466Z" fill="white" stroke="#1B1B1B" stroke-width="0.7" stroke-linecap="round" stroke-linejoin="round"/>
<path d="M102.28 266.901L100.401 268.786" stroke="#1B1B1B" stroke-width="0.7" stroke-linecap="round" stroke-linejoin="round"/>
<path d="M297.621 300.139C294.251 303.211 290.154 305.373 285.716 306.421" stroke="#1B1B1B" stroke-width="0.7" stroke-linecap="round" stroke-linejoin="round"/>
<path d="M114.946 165.938C114.946 165.938 116.818 131.357 130.444 126.073L135.296 148.614L135.394 145.998L119.197 181.445" fill="white"/>
<path d="M114.946 165.938C114.946 165.938 116.818 131.357 130.444 126.073L135.296 148.614L135.394 145.998L119.197 181.445" stroke="#1B1B1B" stroke-width="0.7" stroke-linecap="round" stroke-linejoin="round"/>
<path d="M208.992 203.729C208.992 203.729 212.703 217.76 218.854 216.769C225.005 215.778 235.311 219.023 235.311 219.023C235.311 219.023 238.207 217.904 233.963 214.836L239.205 216.014C239.205 216.014 241.768 215.042 238.332 213.302C238.332 213.302 242.844 214.444 248.404 211.75C248.404 211.75 248.3 209.062 246.916 209.492C245.533 209.922 226.721 208.236 225.219 206.46C223.717 204.684 219.714 198.558 219.714 198.558L208.992 203.729Z" fill="white"/>
<mask id="mask4_137_7" style="mask-type:luminance" maskUnits="userSpaceOnUse" x="208" y="198" width="41" height="22">
<path fill-rule="evenodd" clip-rule="evenodd" d="M208.989 203.728C208.989 203.728 212.7 217.759 218.851 216.768C225.002 215.777 235.308 219.022 235.308 219.022C235.308 219.022 238.204 217.902 233.96 214.834L239.202 216.012C239.202 216.012 241.765 215.04 238.329 213.3C238.329 213.3 242.841 214.442 248.401 211.748C248.401 211.748 248.297 209.061 246.913 209.491C245.529 209.921 226.718 208.235 225.216 206.459C223.713 204.682 219.711 198.556 219.711 198.556L208.989 203.728Z" fill="white"/>
</mask>
<g mask="url(#mask4_137_7)">
<path d="M204.227 208.789C225.198 211.041 226.946 202.228 226.946 202.228L215.586 198.556L201.231 205.805" fill="white"/>
</g>
<path fill-rule="evenodd" clip-rule="evenodd" d="M208.992 203.729C208.992 203.729 212.703 217.76 218.854 216.769C225.005 215.778 235.311 219.023 235.311 219.023C235.311 219.023 238.207 217.904 233.963 214.836L239.205 216.014C239.205 216.014 241.768 215.042 238.332 213.302C238.332 213.302 242.844 214.444 248.404 211.75C248.404 211.75 248.3 209.062 246.916 209.492C245.533 209.922 226.721 208.236 225.219 206.46C223.717 204.684 219.714 198.558 219.714 198.558L208.992 203.729Z" stroke="#1B1B1B" stroke-width="0.7" stroke-linecap="round" stroke-linejoin="round"/>
<path d="M194.95 329.306L209.045 376.458L221.771 371.322L210.401 319.494L194.95 329.306Z" fill="white"/>
<mask id="mask5_137_7" style="mask-type:luminance" maskUnits="userSpaceOnUse" x="194" y="319" width="28" height="58">
<path fill-rule="evenodd" clip-rule="evenodd" d="M194.951 329.307L209.046 376.459L221.772 371.323L210.403 319.495L194.951 329.307Z" fill="white"/>
</mask>
<g mask="url(#mask5_137_7)">
<path d="M193.58 356.975C206.029 360.979 217.938 347.007 217.938 347.007L199.892 345.82L193.58 352.328" fill="white"/>
</g>
<path fill-rule="evenodd" clip-rule="evenodd" d="M194.95 329.306L209.045 376.458L221.771 371.322L210.401 319.494L194.95 329.306V329.306Z" stroke="#1B1B1B" stroke-width="0.7" stroke-linecap="round" stroke-linejoin="round"/>
<path d="M156.192 344.795C156.005 345.572 158.584 373.281 158.584 373.281L174.639 371.598L171.268 332.365L156.192 344.795Z" fill="white"/>
<mask id="mask6_137_7" style="mask-type:luminance" maskUnits="userSpaceOnUse" x="156" y="332" width="19" height="42">
<path fill-rule="evenodd" clip-rule="evenodd" d="M156.191 344.796C156.004 345.573 158.583 373.282 158.583 373.282L174.638 371.599L171.268 332.366L156.191 344.796Z" fill="white"/>
</mask>
<g mask="url(#mask6_137_7)">
<path d="M157.399 351.027C145.42 354.546 169.847 359.763 175.719 358.429C181.591 357.094 180.652 349.085 180.652 349.085L164.328 348.842" fill="white"/>
</g>
<path fill-rule="evenodd" clip-rule="evenodd" d="M156.192 344.795C156.005 345.572 158.584 373.281 158.584 373.281L174.639 371.598L171.268 332.365L156.192 344.795Z" stroke="#1B1B1B" stroke-width="0.7" stroke-linecap="round" stroke-linejoin="round"/>
<path d="M139.557 186.484L155.083 354.291C155.083 354.291 162.504 358.806 179.725 351.586L168.5 232.893L173.943 170.256L139.557 186.484Z" fill="white"/>
<path fill-rule="evenodd" clip-rule="evenodd" d="M139.557 186.484L155.083 354.291C155.083 354.291 162.504 358.806 179.725 351.586L168.5 232.893L173.943 170.256L139.557 186.484Z" stroke="#1B1B1B" stroke-width="0.7" stroke-linecap="round" stroke-linejoin="round"/>
<path d="M145.197 217.686L142.713 212.99C147.662 210.354 146.608 205.455 144.283 197.699C142.812 192.793 141.424 188.161 143.551 184.755C144.664 182.975 146.547 181.861 149.157 181.442L149.992 186.691C149.285 186.805 148.371 187.051 148.04 187.58C147.189 188.941 148.39 192.947 149.355 196.167C151.462 203.192 154.345 212.813 145.197 217.686Z" fill="#1B1B1B"/>
<mask id="mask7_137_7" style="mask-type:luminance" maskUnits="userSpaceOnUse" x="142" y="181" width="10" height="37">
<path fill-rule="evenodd" clip-rule="evenodd" d="M145.201 217.686L142.717 212.99C147.666 210.354 146.611 205.455 144.286 197.699C142.816 192.793 141.427 188.161 143.555 184.755C144.668 182.975 146.55 181.861 149.16 181.442L149.995 186.691C149.289 186.805 148.374 187.051 148.043 187.58C147.192 188.941 148.394 192.947 149.359 196.167C151.465 203.192 154.349 212.813 145.201 217.686Z" fill="white"/>
</mask>
<g mask="url(#mask7_137_7)">
<path d="M144.386 208.875L148.725 218.275L140.921 221.365L138.19 212.093L142.031 210.237" fill="white"/>
<path d="M144.386 208.875L148.725 218.275L140.921 221.365L138.19 212.093L142.031 210.237" stroke="#1B1B1B" stroke-width="0.7" stroke-linecap="round" stroke-linejoin="round"/>
</g>
<path fill-rule="evenodd" clip-rule="evenodd" d="M145.197 217.686L142.713 212.99C147.662 210.354 146.608 205.455 144.283 197.699C142.812 192.793 141.424 188.161 143.551 184.755C144.664 182.975 146.547 181.861 149.157 181.442L149.992 186.691C149.285 186.805 148.371 187.051 148.04 187.58C147.189 188.941 148.39 192.947 149.355 196.167C151.462 203.192 154.345 212.813 145.197 217.686Z" stroke="#1B1B1B" stroke-width="0.7" stroke-linecap="round" stroke-linejoin="round"/>
<path d="M159.64 211.137L198.424 351.456C198.424 351.456 201.367 355.684 220.939 345.48L182.976 174.398L150.903 179.527" fill="white"/>
<path d="M159.64 211.137L198.424 351.456C198.424 351.456 201.367 355.684 220.939 345.48L182.976 174.398L150.903 179.527" stroke="#1B1B1B" stroke-width="0.7" stroke-linecap="round" stroke-linejoin="round"/>
<path d="M129.08 149.367C129.498 159.525 131.336 171.703 136.504 183.138C136.504 183.138 134.215 189.282 136.436 190.416C149.971 197.328 176.549 195.915 186.288 190.734C188.371 189.626 188.76 186.752 187.08 184.977L186.106 183.948C186.106 183.948 193.665 142.225 182.585 126.069C182.585 126.069 164.065 114.749 129.97 126.27" fill="white"/>
<mask id="mask8_137_7" style="mask-type:luminance" maskUnits="userSpaceOnUse" x="129" y="121" width="60" height="75">
<path fill-rule="evenodd" clip-rule="evenodd" d="M129.079 149.366C129.497 159.523 131.335 171.702 136.503 183.136C136.503 183.136 134.214 189.281 136.434 190.415C149.97 197.326 176.547 195.913 186.287 190.733C188.37 189.625 188.759 186.75 187.079 184.976L186.105 183.946C186.105 183.946 193.664 142.224 182.584 126.068C182.584 126.068 164.064 114.747 129.969 126.268" fill="white"/>
</mask>
<g mask="url(#mask8_137_7)">
<ellipse cx="155.982" cy="124.815" rx="14.9189" ry="11.7137" transform="rotate(-24.8803 155.982 124.815)" fill="white" stroke="#1B1B1B" stroke-width="0.7" stroke-linecap="round" stroke-linejoin="round"/>
<ellipse cx="155.918" cy="122.791" rx="13.101" ry="11.4067" transform="rotate(-26.9003 155.918 122.791)" fill="white" stroke="#1B1B1B" stroke-width="0.7" stroke-linecap="round" stroke-linejoin="round"/>
<path d="M170.084 143.294C183.14 175.432 180.199 182.556 165.049 181.699C163.987 181.535 164.058 181.643 165.049 181.699C170.397 182.526 182.474 180.832 187.081 184.977C191.687 189.122 198.966 168.034 198.966 168.034L195.282 160.604" fill="white"/>
</g>
<path d="M129.08 149.367C129.498 159.525 131.336 171.703 136.504 183.138C136.504 183.138 134.215 189.282 136.436 190.416C149.971 197.328 176.549 195.915 186.288 190.734C188.371 189.626 188.76 186.752 187.08 184.977L186.106 183.948C186.106 183.948 193.665 142.225 182.585 126.069C182.585 126.069 164.065 114.749 129.97 126.27" stroke="#1B1B1B" stroke-width="0.7" stroke-linecap="round" stroke-linejoin="round"/>
<path d="M170.076 143.296L209.372 208.793C214.224 208.474 222.976 205.941 225.185 199.234L187.82 130.375C184.614 126.123 178.363 123.86 175.606 123.291" fill="white"/>
<path d="M170.076 143.296L209.372 208.793C214.224 208.474 222.976 205.941 225.185 199.234L187.82 130.375C184.614 126.123 178.363 123.86 175.606 123.291" stroke="#1B1B1B" stroke-width="0.7" stroke-linecap="round" stroke-linejoin="round"/>
<path d="M173.684 381.313H125.569C125.569 381.313 122.175 374.543 143.168 374.839C158.761 375.058 156.737 362.249 156.737 362.249C156.737 362.249 162.784 367.38 175.138 367.07L176.995 377.344C177.182 378.327 176.919 379.342 176.278 380.111C175.637 380.88 174.685 381.321 173.684 381.313Z" fill="#1B1B1B" stroke="#1B1B1B" stroke-width="0.7" stroke-linecap="round" stroke-linejoin="round"/>
<path d="M206.684 368.919C206.684 368.919 218.225 365.1 220.451 361.027C220.451 361.027 223.324 380.76 239.253 378.028C256.594 375.054 256.222 383.698 256.222 383.698H213.244C211.033 383.686 209.14 382.11 208.727 379.937L206.684 368.919Z" fill="#1B1B1B" stroke="#1B1B1B" stroke-width="0.7" stroke-linecap="round" stroke-linejoin="round"/>
<path d="M117.987 128.616C117.987 128.616 119.31 121.01 120.324 116.861C121.339 112.713 107.884 111.099 107.884 111.099L106.983 132.304L117.987 128.616Z" fill="white" stroke="#1B1B1B" stroke-width="0.7" stroke-linecap="round" stroke-linejoin="round"/>
<path d="M110.332 124.555H105.743C105.171 124.55 104.637 124.267 104.312 123.796C103.987 123.326 103.911 122.726 104.109 122.19L111.697 102.479H118.033L111.904 123.379C111.702 124.078 111.06 124.558 110.332 124.555Z" fill="#1B1B1B" stroke="#1B1B1B" stroke-width="0.7" stroke-linecap="round" stroke-linejoin="round"/>
<path d="M105.303 120.046C105.303 120.046 112.84 125.29 112.647 120.91C112.647 120.91 114.534 120.334 113.571 118.144C113.571 118.144 115.03 116.646 114.292 114.975C114.292 114.975 108.693 107.715 106.928 107.945C105.163 108.176 105.274 111.748 105.991 112.728C105.991 112.728 103.62 115.551 105.205 116.877C105.205 116.877 103.383 118.864 105.303 120.046Z" fill="white" stroke="#1B1B1B" stroke-width="0.7" stroke-linecap="round" stroke-linejoin="round"/>
<path d="M116.14 115.028C115.781 113.616 115.482 111.412 111.938 108.831C111.938 108.831 110.791 106.82 111.791 105.695C112.791 104.569 119.009 109.927 120.286 111.24C121.563 112.553 120.496 115.705 120.22 116.867" fill="white"/>
<path d="M116.14 115.028C115.781 113.616 115.482 111.412 111.938 108.831C111.938 108.831 110.791 106.82 111.791 105.695C112.791 104.569 119.009 109.927 120.286 111.24C121.563 112.553 120.496 115.705 120.22 116.867" stroke="#1B1B1B" stroke-width="0.7" stroke-linecap="round" stroke-linejoin="round"/>
<path d="M119.992 178.967C118.897 183.864 115.582 187.416 111.543 187.589L111.434 187.594C105.572 187.846 100.787 180.975 101.431 173.23L105.13 128.702C112.594 125.349 120.895 125.044 120.895 125.044L120.521 161.43" fill="white"/>
<path d="M119.992 178.967C118.897 183.864 115.582 187.416 111.543 187.589L111.434 187.594C105.572 187.846 100.787 180.975 101.431 173.23L105.13 128.702C112.594 125.349 120.895 125.044 120.895 125.044L120.521 161.43" stroke="#1B1B1B" stroke-width="0.7" stroke-linecap="round" stroke-linejoin="round"/>
<path d="M95.9543 78.6499C95.9543 78.6499 102.38 88.6445 117.974 89.6512C120.719 89.8495 122.897 92.0428 123.075 94.789C123.178 96.5889 123.139 98.6335 122.739 100.515C122.194 103.196 119.645 104.98 116.94 104.573C111.87 103.811 99.6174 103.512 90.7923 107.938L95.9543 78.6499Z" fill="#1B1B1B"/>
<mask id="mask9_137_7" style="mask-type:luminance" maskUnits="userSpaceOnUse" x="90" y="78" width="34" height="30">
<path fill-rule="evenodd" clip-rule="evenodd" d="M95.9545 78.6509C95.9545 78.6509 102.38 88.6454 117.975 89.6522C120.719 89.8505 122.897 92.0438 123.075 94.7899C123.178 96.5899 123.14 98.6344 122.739 100.516C122.194 103.197 119.645 104.981 116.94 104.574C111.871 103.812 99.6176 103.513 90.7925 107.939L95.9545 78.6509Z" fill="white"/>
</mask>
<g mask="url(#mask9_137_7)">
<path d="M118.033 85.168C125.175 105.796 107.401 101.161 94.0726 105.539C80.7438 109.917 83.3274 113.516 83.3274 113.516L118.033 113.465L127.25 99.4142L120.379 84.4609" fill="white"/>
</g>
<path fill-rule="evenodd" clip-rule="evenodd" d="M95.9543 78.6499C95.9543 78.6499 102.38 88.6445 117.974 89.6512C120.719 89.8495 122.897 92.0428 123.075 94.789C123.178 96.5889 123.139 98.6335 122.739 100.515C122.194 103.196 119.645 104.98 116.94 104.573C111.87 103.811 99.6174 103.512 90.7923 107.938L95.9543 78.6499Z" stroke="#1B1B1B" stroke-width="0.7" stroke-linecap="round" stroke-linejoin="round"/>
<ellipse cx="92.4022" cy="92.9535" rx="15.5527" ry="5.65966" transform="rotate(-81.509 92.4022 92.9535)" fill="url(#paint0_linear_137_7)"/>
<ellipse cx="92.398" cy="92.9609" rx="15.1604" ry="5.51689" transform="rotate(-81.5061 92.398 92.9609)" fill="#1B1B1B"/>
<mask id="mask10_137_7" style="mask-type:luminance" maskUnits="userSpaceOnUse" x="86" y="77" width="13" height="31">
<ellipse cx="92.3942" cy="92.9536" rx="15.1604" ry="5.51689" transform="rotate(-81.5061 92.3942 92.9536)" fill="white"/>
</mask>
<g mask="url(#mask10_137_7)">
<path d="M92.3905 74.7979C81.3151 111.803 97.522 103.492 97.522 103.492C97.522 103.492 95.5256 113.531 94.7034 113.516C93.8812 113.501 82.6071 108.342 82.6071 108.342L81.785 97.1894" fill="white"/>
</g>
<ellipse cx="92.398" cy="92.9609" rx="15.1604" ry="5.51689" transform="rotate(-81.5061 92.398 92.9609)" stroke="#1B1B1B" stroke-width="0.699978" stroke-linecap="round" stroke-linejoin="round"/>
<mask id="mask11_137_7" style="mask-type:luminance" maskUnits="userSpaceOnUse" x="86" y="77" width="12" height="31">
<ellipse cx="92.041" cy="92.9519" rx="15.1415" ry="5.18515" transform="rotate(-82.1639 92.041 92.9519)" fill="white"/>
</mask>
<g mask="url(#mask11_137_7)">
<ellipse cx="95.811" cy="93.9182" rx="4.78701" ry="4.46936" transform="rotate(-78.7803 95.811 93.9182)" fill="white" stroke="#1B1B1B" stroke-width="0.7" stroke-linecap="round" stroke-linejoin="round"/>
</g>
<path d="M163.35 123.34L157.746 105.797L144.733 108.324L146.773 124.383" fill="white"/>
<path d="M155.645 106.768C146.14 108.798 150.06 120.206 145.889 123.639C141.719 127.071 143.88 108.196 143.88 108.196L151.882 107.727" fill="white"/>
<path d="M142.68 118.053C150.04 118.053 148.091 111.846 148.091 111.846L146.157 110.589L143.072 114.515L142.915 115.293" fill="white"/>
<path d="M163.35 123.34L157.746 105.797L144.733 108.324L146.773 124.383" stroke="#1B1B1B" stroke-width="0.7" stroke-linecap="round" stroke-linejoin="round"/>
<path d="M151.996 103.776C129.732 94.3881 141.116 75.1658 147.278 81.9037C153.441 88.6416 157.344 90.8558 157.344 90.8558L151.996 103.776Z" fill="#1B1B1B" stroke="#1B1B1B" stroke-width="0.7" stroke-linecap="round" stroke-linejoin="round"/>
<path d="M149.409 112.282C127.483 119.739 139.674 89.6558 146.173 87.8362C153.084 85.9014 160.803 106.025 160.803 106.025" fill="white"/>
<mask id="mask12_137_7" style="mask-type:luminance" maskUnits="userSpaceOnUse" x="136" y="87" width="25" height="27">
<path fill-rule="evenodd" clip-rule="evenodd" d="M149.407 112.283C127.481 119.739 139.672 89.6568 146.171 87.8371C153.082 85.9024 160.801 106.026 160.801 106.026" fill="white"/>
</mask>
<g mask="url(#mask12_137_7)">
<path d="M140.246 99.8403C139.728 99.678 139.439 99.1271 139.6 98.6086L140.091 97.021C140.167 96.7721 140.34 96.5638 140.57 96.4421C140.8 96.3205 141.069 96.2955 141.318 96.3726C141.836 96.5349 142.125 97.0858 141.964 97.6043L141.473 99.1919C141.397 99.4408 141.225 99.6491 140.994 99.7708C140.764 99.8924 140.495 99.9174 140.246 99.8403Z" fill="#1B1B1B"/>
<path d="M147.376 101.48C146.858 101.318 146.569 100.767 146.73 100.248L147.22 98.6607C147.297 98.4117 147.469 98.2034 147.7 98.0818C147.93 97.9601 148.199 97.9351 148.448 98.0123C148.966 98.1746 149.255 98.7255 149.094 99.2439L148.603 100.832C148.527 101.08 148.354 101.289 148.124 101.41C147.894 101.532 147.624 101.557 147.376 101.48Z" fill="#1B1B1B"/>
<path d="M143.355 99.9336C142.75 101.967 142.578 102.568 142.578 102.568C139.119 102.209 142.092 105.497 142.092 105.497" fill="white"/>
<path d="M143.355 99.9336C142.75 101.967 142.578 102.568 142.578 102.568C139.119 102.209 142.092 105.497 142.092 105.497" stroke="#1B1B1B" stroke-width="0.7" stroke-linecap="round" stroke-linejoin="round"/>
<path d="M144.165 106.149C143.941 106.847 143.255 107.29 142.526 107.207L144.165 106.149Z" fill="white"/>
<path d="M144.165 106.149C143.941 106.847 143.255 107.29 142.526 107.207" stroke="#1B1B1B" stroke-width="0.7" stroke-linecap="round" stroke-linejoin="round"/>
<path d="M141.77 94.0843C139.686 94.0487 139.889 95.2582 141.191 95.3658C142.492 95.4733 143.132 94.1075 141.77 94.0843Z" fill="#1B1B1B"/>
<path d="M149.094 95.7064C150.833 96.861 150.153 97.7076 149.019 97.0569C147.885 96.4063 147.958 94.952 149.094 95.7064Z" fill="#1B1B1B"/>
</g>
<path d="M149.409 112.282C127.483 119.739 139.674 89.6558 146.173 87.8362C153.084 85.9014 160.803 106.025 160.803 106.025" stroke="#1B1B1B" stroke-width="0.7" stroke-linecap="round" stroke-linejoin="round"/>
<path d="M160.534 114.518C160.534 114.518 153.106 100.917 153.753 98.3772C153.753 98.3772 142.661 93.3963 147.272 81.9011C167.984 80.2755 179.209 86.956 174.944 106.394C173.881 106.428 172.85 106.034 172.082 105.3C170.654 112.138 163.467 109.894 160.534 114.518Z" fill="#1B1B1B" stroke="#1B1B1B" stroke-width="0.7" stroke-linecap="round" stroke-linejoin="round"/>
<path d="M153.029 100.475C164.336 95.8905 166.683 107.58 155.841 109.126L153.029 100.475Z" fill="white"/>
<path d="M153.029 100.475C164.336 95.8905 166.683 107.58 155.841 109.126" stroke="#1B1B1B" stroke-width="0.7" stroke-linecap="round" stroke-linejoin="round"/>
<path d="M156.731 102.49C156.965 102.528 157.196 102.582 157.423 102.652C157.642 102.742 157.842 102.949 157.82 103.186C157.78 103.367 157.676 103.527 157.525 103.636C157.169 103.956 156.784 104.244 156.376 104.496" stroke="#1B1B1B" stroke-width="0.7" stroke-linecap="round" stroke-linejoin="round"/>
<path d="M156.496 87.6475C156.193 88.7699 156.377 89.9682 157.003 90.9478C157.63 91.9274 158.64 92.5974 159.786 92.793" stroke="#1B1B1B" stroke-width="0.7" stroke-linecap="round" stroke-linejoin="round"/>
<path d="M168.329 105.735C167.596 106.935 166.481 107.854 165.163 108.343" stroke="#1B1B1B" stroke-width="0.7" stroke-linecap="round" stroke-linejoin="round"/>
<path d="M155.417 127.364C155.672 128.034 156.371 128.425 157.076 128.292" stroke="#1B1B1B" stroke-width="0.7" stroke-linecap="round" stroke-linejoin="round"/>
<path d="M152.606 251.419C153.363 253.672 155.26 255.355 157.588 255.838" stroke="#1B1B1B" stroke-width="0.7" stroke-linecap="round" stroke-linejoin="round"/>
<path d="M199.771 325.875L202.145 328.207" stroke="#1B1B1B" stroke-width="0.7" stroke-linecap="round" stroke-linejoin="round"/>
<path d="M150.936 365.448L155.994 370.033C150.714 370.298 145.423 370.167 140.163 369.643" stroke="#1B1B1B" stroke-width="0.7" stroke-linecap="round" stroke-linejoin="round"/>
<path d="M229.927 370.179L224.36 374.77C226.568 373.928 228.95 373.643 231.295 373.94" stroke="#1B1B1B" stroke-width="0.7" stroke-linecap="round" stroke-linejoin="round"/>
</g>
<defs>
<linearGradient id="paint0_linear_137_7" x1="115.764" y1="90.8328" x2="110.03" y2="72.034" gradientUnits="userSpaceOnUse">
<stop offset="0.0014" stop-color="#FF458B"/>
<stop offset="0.9609" stop-color="#8F38F6"/>
</linearGradient>
</defs>
</svg>
